<?xml version="1.0" encoding="UTF-8" standalone="no"?>
<!DOCTYPE svg PUBLIC "-//W3C//DTD SVG 1.1//EN" "http://www.w3.org/Graphics/SVG/1.1/DTD/svg11.dtd">
<svg width="100%" height="100%" viewBox="0 0 48 48" version="1.1" xmlns="http://www.w3.org/2000/svg" xmlns:xlink="http://www.w3.org/1999/xlink" xml:space="preserve" xmlns:serif="http://www.serif.com/" style="fill-rule:evenodd;clip-rule:evenodd;stroke-linecap:round;">
    <path d="M22,24L9,15" style="fill:none;fill-rule:nonzero;stroke:rgb(74,124,158);stroke-width:1.5px;"/>
    <path d="M9,15L5,8" style="fill:none;fill-rule:nonzero;stroke:rgb(74,124,158);stroke-opacity:0.7;stroke-width:1.2px;"/>
    <path d="M9,15L4,17" style="fill:none;fill-rule:nonzero;stroke:rgb(74,124,158);stroke-opacity:0.7;stroke-width:1.2px;"/>
    <path d="M22,24L13,33" style="fill:none;fill-rule:nonzero;stroke:rgb(74,124,158);stroke-width:1.5px;"/>
    <path d="M13,33L8,38" style="fill:none;fill-rule:nonzero;stroke:rgb(74,124,158);stroke-opacity:0.7;stroke-width:1.2px;"/>
    <path d="M13,33L10,41" style="fill:none;fill-rule:nonzero;stroke:rgb(74,124,158);stroke-opacity:0.7;stroke-width:1.2px;"/>
    <path d="M22,24L17,11" style="fill:none;fill-rule:nonzero;stroke:rgb(74,124,158);stroke-width:1.5px;"/>
    <path d="M17,11L13,5" style="fill:none;fill-rule:nonzero;stroke:rgb(74,124,158);stroke-opacity:0.7;stroke-width:1.2px;"/>
    <path d="M17,11L21,5" style="fill:none;fill-rule:nonzero;stroke:rgb(74,124,158);stroke-opacity:0.7;stroke-width:1.2px;"/>
    <path d="M22,24L35,28" style="fill:none;fill-rule:nonzero;stroke:rgb(45,95,122);stroke-width:2px;"/>
    <path d="M35,28L41,25" style="fill:none;fill-rule:nonzero;stroke:rgb(45,95,122);stroke-width:1.5px;"/>
    <circle cx="22" cy="24" r="4.5" style="fill:rgb(74,124,158);fill-opacity:0.12;"/>
    <circle cx="22" cy="24" r="4.5" style="fill:none;stroke:rgb(45,95,122);stroke-width:1.5px;stroke-linecap:butt;"/>
    <circle cx="22" cy="24" r="2" style="fill:rgb(45,95,122);"/>
    <path d="M5,8L9,15L22,24L35,28L41,25" style="fill:none;fill-rule:nonzero;stroke:rgb(91,168,90);stroke-opacity:0.9;stroke-width:2px;stroke-linejoin:round;"/>
    <circle cx="5" cy="8" r="2" style="fill:rgb(91,168,90);"/>
    <circle cx="9" cy="15" r="2" style="fill:rgb(91,168,90);"/>
    <circle cx="35" cy="28" r="2" style="fill:rgb(91,168,90);"/>
    <circle cx="41" cy="25" r="2" style="fill:rgb(91,168,90);"/>
    <g transform="matrix(1.621963,0,0,1.931332,-22.542215,-1.820373)">
        <g transform="matrix(1,0,0,1,31.438,11.618)">
            <path d="M-0.018,0L3.281,-8.59L4.506,-8.59L8.021,0L6.727,0L5.725,-2.602L2.133,-2.602L1.189,0L-0.018,0ZM2.461,-3.527L5.373,-3.527L4.477,-5.906C4.203,-6.629 4,-7.223 3.867,-7.688C3.758,-7.137 3.604,-6.59 3.404,-6.047L2.461,-3.527Z" style="fill-rule:nonzero;"/>
        </g>
        <g transform="matrix(1,0,0,1,39.442,11.618)">
            <path d="M0.42,0L0.42,-0.079C0.379,-0.018 0.322,0.012 0.25,0.012C0.218,0.012 0.189,0.006 0.161,-0.006C0.134,-0.018 0.113,-0.033 0.1,-0.052C0.087,-0.07 0.077,-0.093 0.072,-0.119C0.068,-0.137 0.066,-0.166 0.066,-0.204L0.066,-0.537L0.157,-0.537L0.157,-0.239C0.157,-0.192 0.159,-0.16 0.163,-0.143C0.169,-0.119 0.181,-0.1 0.199,-0.087C0.218,-0.073 0.241,-0.066 0.268,-0.066C0.295,-0.066 0.321,-0.073 0.345,-0.087C0.369,-0.101 0.386,-0.12 0.396,-0.144C0.406,-0.169 0.411,-0.204 0.411,-0.249L0.411,-0.537L0.502,-0.537L0.502,0L0.42,0Z" style="fill-rule:nonzero;"/>
            <path d="M0.843,-0.081L0.856,-0.001C0.831,0.004 0.808,0.007 0.788,0.007C0.755,0.007 0.729,0.002 0.711,-0.009C0.693,-0.019 0.68,-0.033 0.672,-0.05C0.665,-0.067 0.661,-0.103 0.661,-0.157L0.661,-0.466L0.594,-0.466L0.594,-0.537L0.661,-0.537L0.661,-0.67L0.752,-0.725L0.752,-0.537L0.843,-0.537L0.843,-0.466L0.752,-0.466L0.752,-0.152C0.752,-0.126 0.753,-0.11 0.757,-0.102C0.76,-0.095 0.765,-0.089 0.772,-0.084C0.779,-0.08 0.79,-0.078 0.803,-0.078C0.813,-0.078 0.827,-0.079 0.843,-0.081Z" style="fill-rule:nonzero;"/>
            <path d="M0.898,-0.269C0.898,-0.368 0.926,-0.442 0.981,-0.49C1.028,-0.529 1.084,-0.549 1.15,-0.549C1.224,-0.549 1.285,-0.525 1.331,-0.477C1.378,-0.428 1.402,-0.362 1.402,-0.276C1.402,-0.207 1.391,-0.153 1.371,-0.113C1.35,-0.073 1.32,-0.043 1.28,-0.021C1.24,0.001 1.197,0.012 1.15,0.012C1.075,0.012 1.014,-0.012 0.968,-0.06C0.922,-0.108 0.898,-0.178 0.898,-0.269ZM0.992,-0.269C0.992,-0.2 1.007,-0.148 1.037,-0.114C1.067,-0.08 1.105,-0.063 1.15,-0.063C1.196,-0.063 1.233,-0.08 1.263,-0.114C1.293,-0.149 1.308,-0.201 1.308,-0.272C1.308,-0.338 1.293,-0.388 1.263,-0.423C1.233,-0.457 1.195,-0.474 1.15,-0.474C1.105,-0.474 1.067,-0.457 1.037,-0.423C1.007,-0.389 0.992,-0.337 0.992,-0.269Z" style="fill-rule:nonzero;"/>
        </g>
    </g>
</svg>
