<?xml version="1.0" encoding="utf-8"?>
<!-- Generator: Adobe Illustrator 23.0.1, SVG Export Plug-In . SVG Version: 6.00 Build 0)  -->
<svg version="1.1" id="Layer_1" xmlns="http://www.w3.org/2000/svg" xmlns:xlink="http://www.w3.org/1999/xlink" x="0px" y="0px"
	 viewBox="0 0 511.99 511.99" style="enable-background:new 0 0 511.99 511.99;" xml:space="preserve">
<style type="text/css">
	.st0{fill:#FFFFFF;}
</style>
<g>
	<g>
		<g>
			<path class="st0" d="M388.84,352.92l-122.13-61.01v-142.4c0-5.33-3.84-10.13-9.07-10.88c-6.61-0.96-12.27,4.16-12.27,10.56
				v142.72l-122.13,61.01c-5.23,2.67-7.36,9.07-4.8,14.29c2.56,5.23,9.07,7.36,14.29,4.8l123.31-61.65l123.2,61.65
				c5.23,2.67,11.63,0.53,14.29-4.8S394.07,355.59,388.84,352.92z"/>
			<path class="st0" d="M245.37,56.6v39.15c0,5.33,3.84,10.13,9.07,10.88c6.61,0.96,12.27-4.16,12.27-10.56V56.6l39.47-38.19
				c4.27-4.16,4.27-10.88,0.21-15.15c-4.05-4.27-10.88-4.37-15.15-0.21l-35.2,34.13l-35.2-34.13c-4.27-4.16-10.99-4.05-15.15,0.21
				c-4.16,4.27-4.05,10.99,0.21,15.15L245.37,56.6z"/>
			<path class="st0" d="M85.26,480.07H34.17l59.2-67.63c3.84-4.48,3.41-11.2-0.96-15.04c-1.92-1.71-4.37-2.67-6.93-2.67H11.02
				c-5.33,0-10.13,3.84-10.88,9.07c-0.96,6.61,4.16,12.27,10.56,12.27h51.2L2.7,483.69c-3.84,4.48-3.41,11.2,1.07,15.04
				c1.92,1.71,4.48,2.67,7.04,2.67h74.24c5.33,0,10.13-3.84,10.88-9.07C96.79,485.72,91.77,480.07,85.26,480.07z"/>
			<path class="st0" d="M508.84,493.83l-31.15-35.63l31.15-35.63c4.16-4.16,4.16-10.88,0-15.04c-4.16-4.16-10.88-4.16-15.04,0
				c-0.32,0.32-0.64,0.75-0.96,1.07l-29.33,33.49l-29.23-33.49c-3.63-4.69-10.24-5.55-14.93-2.03c-4.69,3.63-5.55,10.24-2.03,14.93
				c0.32,0.43,0.64,0.75,0.96,1.07l31.15,35.63l-31.15,35.63c-4.16,4.16-4.16,10.88,0,15.04s10.88,4.16,15.04,0
				c0.32-0.32,0.64-0.75,0.96-1.07l29.33-33.49l29.23,33.49c3.63,4.69,10.24,5.55,14.93,2.03c4.69-3.63,5.55-10.24,2.03-14.93
				C509.48,494.47,509.16,494.15,508.84,493.83z"/>
		</g>
	</g>
</g>
</svg>
