<?xml version="1.0" encoding="utf-8"?>
<!-- Generator: Adobe Illustrator 23.0.1, SVG Export Plug-In . SVG Version: 6.00 Build 0)  -->
<svg version="1.1" id="Capa_1" xmlns="http://www.w3.org/2000/svg" xmlns:xlink="http://www.w3.org/1999/xlink" x="0px" y="0px"
	 viewBox="0 0 294.54 294.54" style="enable-background:new 0 0 294.54 294.54;" xml:space="preserve">
<style type="text/css">
	.st0{fill:#FFFFFF;}
</style>
<path class="st0" d="M269.54,104.29v8.91h-16.51V92.56H109.42l20.96-36.14h108.53v-25H115.98L80.52,92.56H47.64v42.15L0,120.74
	v114.21l47.64-13.97v42.15h205.38v-102.9h16.51v8.91h25v-64.84C294.54,104.29,269.54,104.29,269.54,104.29z M148.13,244.15
	c-11.04,0-20-8.95-20-20s8.96-20,20-20c11.05,0,20,8.95,20,20C168.13,235.2,159.18,244.15,148.13,244.15z M212.38,244.15
	c-11.04,0-20-8.95-20-20s8.96-20,20-20c11.05,0,20,8.95,20,20S223.43,244.15,212.38,244.15z"/>
</svg>
