<?xml version="1.0" encoding="utf-8"?>
<!-- Generator: Adobe Illustrator 25.3.1, SVG Export Plug-In . SVG Version: 6.00 Build 0)  -->
<svg version="1.1" id="Layer_1" xmlns="http://www.w3.org/2000/svg" xmlns:xlink="http://www.w3.org/1999/xlink" x="0px" y="0px"
	 viewBox="0 0 500 500" style="enable-background:new 0 0 500 500;" xml:space="preserve">
<style type="text/css">
	.st0{fill:#FFFFFF;}
</style>
<path class="st0" d="M250,20C123.2,20,20,123.2,20,250s103.2,230,230,230s230-103.2,230-230S376.8,20,250,20z M337.1,322.9
	c3.9,3.9,3.9,10.3,0,14.2c-2,1.9-4.5,2.9-7.1,2.9s-5.1-1-7.1-2.9L250,264.2l-72.9,72.9c-2,1.9-4.5,2.9-7.1,2.9s-5.1-1-7.1-2.9
	c-3.9-3.9-3.9-10.3,0-14.2l72.9-72.9l-72.9-72.9c-3.9-3.9-3.9-10.3,0-14.2c3.9-3.9,10.3-3.9,14.2,0l72.9,72.9l72.9-72.9
	c3.9-3.9,10.3-3.9,14.2,0c3.9,3.9,3.9,10.3,0,14.2L264.2,250L337.1,322.9z"/>
</svg>
