<?xml version="1.0" encoding="utf-8"?>
<!-- Generator: Adobe Illustrator 23.0.1, SVG Export Plug-In . SVG Version: 6.00 Build 0)  -->
<svg version="1.1" id="Capa_1" xmlns="http://www.w3.org/2000/svg" xmlns:xlink="http://www.w3.org/1999/xlink" x="0px" y="0px"
	 viewBox="0 0 533.3 533.3" style="enable-background:new 0 0 533.3 533.3;" xml:space="preserve">
<style type="text/css">
	.st0{fill:#FFFFFF;}
</style>
<g>
	<path class="st0" d="M214.79,324.6H318.5c7.18,0,13.57-2.81,17.51-7.71c3.55-4.42,4.81-10.04,3.54-15.84
		c-2.54-11.57-14.5-22.76-27.23-25.48c-0.24-0.05-1.54-0.33-3.62-0.74c-1.77-0.35-6.8-1.41-6.8-6.41v-6.01
		c0-8.33-5.12-15.49-12.39-18.49c-1.68-0.7-5.37-1.88-5.37-5.5V17.5c0-9.66-7.83-17.5-17.5-17.5s-17.5,7.84-17.5,17.5v220.93
		c0,3.12-4.04,4.9-5.88,5.72c-6.99,3.12-11.88,10.13-11.88,18.27v7.01c0,3.75-4.1,4.88-5.69,5.19c-2.71,0.53-4.45,0.9-4.73,0.96
		c-12.73,2.72-24.69,13.91-27.23,25.48c-1.27,5.8-0.01,11.42,3.54,15.84C201.23,321.79,207.61,324.6,214.79,324.6z"/>
	<path class="st0" d="M382.63,497.45l-27.98-127.54c-2.84-12.94-15.92-23.47-29.17-23.47H207.81c-13.25,0-26.33,10.53-29.17,23.46
		l-27.98,127.55c-1.45,6.59-0.16,13.15,3.62,18.46c3.78,5.31,9.55,8.67,16.25,9.47c2.73,0.32,67.08,7.91,95.97,7.92h0.02
		c0,0,0,0,0,0c28.97,0,93.49-7.6,96.23-7.92c6.7-0.79,12.47-4.16,16.25-9.47C382.79,510.6,384.08,504.05,382.63,497.45z
		 M266.53,528.3L266.53,528.3L266.53,528.3L266.53,528.3z"/>
</g>
</svg>
