<?xml version="1.0" encoding="utf-8"?>
<!-- Generator: Adobe Illustrator 23.0.1, SVG Export Plug-In . SVG Version: 6.00 Build 0)  -->
<svg version="1.1" id="Capa_1" xmlns="http://www.w3.org/2000/svg" xmlns:xlink="http://www.w3.org/1999/xlink" x="0px" y="0px"
	 viewBox="0 0 210 210" style="enable-background:new 0 0 210 210;" xml:space="preserve">
<style type="text/css">
	.st0{fill:#020202;}
</style>
<polygon class="st0" points="60.61,179.56 34.17,153.12 14.24,133.18 91.66,122.07 80.54,199.49 "/>
<polygon class="st0" points="149.39,179.56 179.84,210 206.28,183.56 175.84,153.12 195.77,133.19 118.34,122.07 129.46,199.49 "/>
<rect x="10.64" y="162.86" transform="matrix(0.7071 -0.7071 0.7071 0.7071 -118.9607 75.9219)" class="st0" width="43.05" height="37.39"/>
<polygon class="st0" points="34.17,56.88 3.72,26.44 30.16,0 60.61,30.44 80.54,10.51 91.66,87.93 14.24,76.81 "/>
<polygon class="st0" points="206.28,26.44 175.84,56.88 195.77,76.82 118.34,87.93 129.46,10.51 149.39,30.44 179.84,0 "/>
</svg>
