<?xml version="1.0" encoding="utf-8"?>
<!-- Generator: Adobe Illustrator 23.0.1, SVG Export Plug-In . SVG Version: 6.00 Build 0)  -->
<svg version="1.1" id="Capa_1" xmlns="http://www.w3.org/2000/svg" xmlns:xlink="http://www.w3.org/1999/xlink" x="0px" y="0px"
	 viewBox="0 0 412.84 412.84" style="enable-background:new 0 0 412.84 412.84;" xml:space="preserve">
<style type="text/css">
	.st0{fill:#FFFFFF;}
</style>
<g>
	<path class="st0" d="M236.43,199.55c-3.51,0-7.01,0.41-10.4,1.21l-0.04-107.8c0-23.98-19.49-43.5-43.45-43.5
		c-3.74,0-7.38,0.44-10.84,1.27v-1.27c0-23.99-19.52-43.5-43.5-43.5c-11.5,0-22.34,4.44-30.53,12.51
		c-8.18,8.05-12.78,18.81-12.97,30.28l0,0.16v0.16v3.78c-3.56-0.92-7.22-1.4-10.85-1.4c-23.99,0-43.5,19.52-43.5,43.5V224.6
		c-15.78,5.51-29.6,20.19-30.19,41.04c-0.92,32.58,1.76,73.8,30.86,103.73c24.54,25.24,62.89,37.51,117.24,37.51
		c48.94,0,85.15-14.42,107.63-42.86c15.79-19.98,24.14-46.87,24.14-77.79l-0.08-43.21C279.93,219.06,260.42,199.55,236.43,199.55z
		 M148.24,386.88c-114.59,0-129.87-58.08-128.1-120.67c0.42-15.1,13.4-24.01,24.01-24.01v27.68c0,3.48,2.41,3.89,3.14,3.89
		c0.72,0,3.05-0.39,3.05-3.88c0-3.36,0-174.93,0-174.93c0-12.98,10.52-23.5,23.5-23.5c11.91,0,23.28,9.48,23.28,20.35
		c0.01,0.04-0.08,112.09-0.08,112.09c0,2.11,1.71,3.83,3.83,3.83s3.83-1.71,3.83-3.83V49.08c0.21-12.8,10.64-23.12,23.5-23.12
		c12.98,0,23.5,10.52,23.5,23.5l0.02,170.69c0,2.08,1.69,3.77,3.77,3.77c2.08,0,3.77-1.69,3.77-3.77l-0.01-130.63
		c0-11.82,11.48-20.07,23.29-20.07c12.98,0,23.45,10.52,23.45,23.5l0.05,146.89c0,2.02,1.65,3.67,3.67,3.67
		c2.02,0,3.66-1.64,3.66-3.67l-0.01-1.31c0-10.75,11.63-18.99,23.07-18.99c12.98,0,23.5,10.52,23.5,23.5l0.08,43.18
		C260.01,326.39,244.39,386.88,148.24,386.88z"/>
	<path class="st0" d="M409.91,87.37L392.94,70.4c-3.91-3.9-10.24-3.9-14.14,0c-3.87,3.87-3.9,10.13-0.09,14.04h-22.36
		c-5.52,0-10,4.48-10,10s4.48,10,10,10h22.36c-3.81,3.91-3.78,10.17,0.09,14.04c1.95,1.95,4.51,2.93,7.07,2.93
		c2.56,0,5.12-0.98,7.07-2.93l16.97-16.97C413.82,97.61,413.82,91.27,409.91,87.37z"/>
	<path class="st0" d="M307.17,104.44c5.52,0,10-4.48,10-10s-4.48-10-10-10h-22.36c3.81-3.91,3.78-10.17-0.09-14.04
		c-3.91-3.9-10.24-3.9-14.14,0L253.6,87.37c-3.9,3.9-3.9,10.24,0,14.14l16.97,16.97c1.95,1.95,4.51,2.93,7.07,2.93
		c2.56,0,5.12-0.98,7.07-2.93c3.87-3.87,3.9-10.13,0.09-14.04L307.17,104.44L307.17,104.44z"/>
	<path class="st0" d="M341.76,141.39v-22.36c0-5.52-4.48-10-10-10c-5.52,0-10,4.48-10,10v22.36c-3.91-3.81-10.17-3.78-14.04,0.09
		c-3.9,3.9-3.9,10.24,0,14.14l16.97,16.97c1.95,1.95,4.51,2.93,7.07,2.93c2.56,0,5.12-0.98,7.07-2.93l16.97-16.97
		c3.91-3.9,3.91-10.24,0-14.14C351.92,137.61,345.67,137.58,341.76,141.39z"/>
	<path class="st0" d="M321.76,47.49v22.37c0,5.52,4.48,10,10,10c5.52,0,10-4.48,10-10V47.49c1.94,1.89,4.45,2.84,6.97,2.84
		c2.56,0,5.12-0.98,7.07-2.93c3.91-3.9,3.91-10.24,0-14.14l-16.97-16.97c-3.91-3.9-10.24-3.9-14.14,0l-16.97,16.97
		c-3.9,3.9-3.9,10.24,0,14.14C311.59,51.27,317.84,51.3,321.76,47.49z"/>
</g>
</svg>
