<?xml version="1.0" encoding="iso-8859-1"?>
<!-- Generator: Adobe Illustrator 18.0.0, SVG Export Plug-In . SVG Version: 6.00 Build 0)  -->
<!DOCTYPE svg PUBLIC "-//W3C//DTD SVG 1.1//EN" "http://www.w3.org/Graphics/SVG/1.1/DTD/svg11.dtd">
<svg version="1.1" id="Capa_1" xmlns="http://www.w3.org/2000/svg" xmlns:xlink="http://www.w3.org/1999/xlink" x="0px" y="0px"
	 viewBox="0 0 412.84 412.84" style="enable-background:new 0 0 412.84 412.84;" xml:space="preserve">
<g>
	<path d="M236.431,199.547c-3.514,0-7.008,0.412-10.404,1.211l-0.035-107.804c0-23.981-19.492-43.497-43.453-43.497
		c-3.742,0-7.377,0.442-10.844,1.272v-1.266c0-23.986-19.516-43.502-43.504-43.502c-11.498,0-22.34,4.443-30.527,12.511
		c-8.176,8.054-12.781,18.807-12.967,30.279l-0.004,0.163v0.163v3.78c-3.563-0.921-7.219-1.404-10.854-1.404
		c-23.988,0-43.504,19.516-43.504,43.503v129.644c-15.785,5.51-29.605,20.188-30.191,41.04C-0.772,298.215,1.906,339.442,31,369.365
		c24.543,25.242,62.893,37.513,117.24,37.513c48.936,0,85.146-14.42,107.631-42.859c15.791-19.975,24.139-46.873,24.139-77.787
		l-0.076-43.215C279.933,219.063,260.418,199.547,236.431,199.547z M148.24,386.878c-114.588,0-129.865-58.085-128.104-120.674
		c0.424-15.095,13.4-24.01,24.01-24.01v27.683c0,3.482,2.414,3.886,3.137,3.886c0.719,0,3.053-0.395,3.053-3.878
		c0-3.36,0-174.926,0-174.926c0-12.98,10.521-23.503,23.504-23.503c11.91,0,23.285,9.484,23.285,20.349
		c0.01,0.044-0.084,112.093-0.084,112.093c0,2.113,1.713,3.826,3.826,3.826c2.113,0,3.826-1.713,3.826-3.826V49.078
		c0.209-12.801,10.643-23.116,23.498-23.116c12.98,0,23.504,10.523,23.504,23.504l0.016,170.69c0,2.083,1.688,3.77,3.771,3.77
		c2.08,0,3.768-1.687,3.768-3.77l-0.006-130.634c0-11.816,11.482-20.065,23.295-20.065c12.98,0,23.453,10.522,23.453,23.503
		l0.047,146.887c0,2.025,1.645,3.667,3.672,3.667c2.023,0,3.664-1.642,3.664-3.667l-0.012-1.313
		c0-10.747,11.631-18.988,23.068-18.988c12.979,0,23.502,10.523,23.502,23.504l0.076,43.181
		C260.009,326.393,244.39,386.878,148.24,386.878z"/>
	<path d="M409.91,87.368l-16.971-16.971c-3.906-3.904-10.236-3.904-14.143,0c-3.873,3.873-3.898,10.129-0.09,14.042h-22.365
		c-5.523,0-10,4.477-10,10c0,5.523,4.477,10,10,10h22.365c-3.809,3.913-3.783,10.169,0.09,14.042
		c1.953,1.952,4.512,2.929,7.072,2.929c2.559,0,5.117-0.977,7.07-2.929l16.971-16.971C413.816,97.605,413.816,91.273,409.91,87.368z
		"/>
	<path d="M307.174,104.439c5.522,0,10-4.477,10-10c0-5.523-4.478-10-10-10h-22.365c3.809-3.913,3.781-10.169-0.092-14.042
		c-3.906-3.904-10.236-3.904-14.143,0l-16.971,16.971c-3.904,3.905-3.904,10.237,0,14.143l16.971,16.971
		c1.953,1.952,4.512,2.929,7.072,2.929c2.559,0,5.117-0.977,7.07-2.929c3.873-3.873,3.9-10.129,0.092-14.042H307.174z"/>
	<path d="M341.758,141.388v-22.365c0-5.523-4.479-10-10-10c-5.523,0-10,4.477-10,10v22.365c-3.914-3.809-10.168-3.782-14.043,0.091
		c-3.904,3.905-3.904,10.237,0,14.143l16.971,16.971c1.953,1.953,4.512,2.929,7.072,2.929c2.559,0,5.117-0.976,7.07-2.929
		l16.971-16.971c3.906-3.905,3.906-10.237,0-14.143C351.925,137.606,345.67,137.579,341.758,141.388z"/>
	<path d="M321.758,47.49v22.365c0,5.523,4.477,10,10,10c5.521,0,10-4.477,10-10V47.49c1.939,1.889,4.453,2.838,6.971,2.838
		c2.559,0,5.117-0.976,7.07-2.929c3.906-3.905,3.906-10.237,0-14.143l-16.971-16.971c-3.906-3.905-10.236-3.905-14.143,0
		l-16.971,16.971c-3.904,3.905-3.904,10.237,0,14.143C311.59,51.272,317.843,51.299,321.758,47.49z"/>
</g>
<g>
</g>
<g>
</g>
<g>
</g>
<g>
</g>
<g>
</g>
<g>
</g>
<g>
</g>
<g>
</g>
<g>
</g>
<g>
</g>
<g>
</g>
<g>
</g>
<g>
</g>
<g>
</g>
<g>
</g>
</svg>
