<?xml version="1.0" encoding="utf-8"?>
<!-- Generator: Adobe Illustrator 23.0.1, SVG Export Plug-In . SVG Version: 6.00 Build 0)  -->
<svg version="1.1" id="Capa_1" xmlns="http://www.w3.org/2000/svg" xmlns:xlink="http://www.w3.org/1999/xlink" x="0px" y="0px"
	 viewBox="0 0 210 210" style="enable-background:new 0 0 210 210;" xml:space="preserve">
<style type="text/css">
	.st0{fill:#FDFDFD;}
</style>
<path class="st0" d="M34.77,152.51l26.44,26.44l19.93,19.93L3.72,210l11.12-77.42L34.77,152.51z M175.23,152.51l-30.44-30.44
	l-26.44,26.44l30.44,30.44l-19.93,19.93L206.28,210l-11.12-77.42L175.23,152.51z M65.22,122.07l26.44,26.44l-30.44,30.44
	l-26.44-26.44L65.22,122.07z M61.22,31.05l30.44,30.44L65.22,87.93L34.77,57.49L14.84,77.42L3.72,0l77.42,11.12L61.22,31.05z
	 M118.34,61.49l30.44-30.44l-19.93-19.93L206.28,0l-11.12,77.42l-19.93-19.93l-30.45,30.44L118.34,61.49z"/>
</svg>
