<?xml version="1.0" encoding="utf-8"?>
<!-- Generator: Adobe Illustrator 23.0.1, SVG Export Plug-In . SVG Version: 6.00 Build 0)  -->
<svg version="1.1" id="Capa_1" xmlns="http://www.w3.org/2000/svg" xmlns:xlink="http://www.w3.org/1999/xlink" x="0px" y="0px"
	 viewBox="0 0 425.97 425.97" style="enable-background:new 0 0 425.97 425.97;" xml:space="preserve">
<style type="text/css">
	.st0{fill:#FFFFFF;}
</style>
<g>
	<g>
		<path class="st0" d="M425.39,205.3C425.35,205.2,425.38,205.25,425.39,205.3L425.39,205.3z"/>
		<path class="st0" d="M425.4,205.33c-1.39-3.9-3.21-7.68-5.08-11.36c-2.53-4.97-5.25-9.85-8.19-14.58
			c-2.93-4.71-5.96-9.4-9.25-13.88c-13.9-18.91-29.97-36.02-48.35-50.65c-19.46-15.5-41.24-28.14-64.52-36.97
			c-5.84-2.21-11.78-4.19-17.79-5.9c-5.96-1.7-11.99-3-18.05-4.28c-5.51-1.16-11.17-2.04-16.77-2.59c-4.48-0.44-8.98-0.96-13.48-1.1
			c-7.16-0.22-14.25-0.42-21.41-0.07c-12.88,0.64-25.7,2.44-38.25,5.37c-24.4,5.69-47.71,15.6-68.99,28.81
			c-21.18,13.15-40.35,29.51-56.81,48.22c-10.61,12.05-20.06,25.04-28.1,38.93c-2.9,5.01-5.58,10.16-7.93,15.46
			c-1.63,3.67-3.34,7.36-1.85,11.41c1.79,4.83,7.15,7.56,12.1,6.15c2.85-0.81,5.24-3.1,7.56-4.85
			c13.23-9.96,26.94-19.36,40.94-28.19c20.82-13.13,42.58-24.94,65.49-34.01c15.43-6.1,31.4-10.93,47.71-13.97
			c6.82,3.82,11.44,11.11,11.44,19.48c0,12.33-10,22.33-22.33,22.33c-6.48,0-12.32-2.76-16.4-7.17c-1.17,4.98-1.81,10.17-1.81,15.51
			c0,37.37,30.3,67.67,67.67,67.67c37.37,0,67.67-30.3,67.67-67.67c0-18.88-7.73-35.94-20.2-48.21
			c15.91,3.62,31.42,8.83,46.45,15.25c22.86,9.77,44.58,22.12,65.38,35.68c11.3,7.37,22.42,15.07,33.22,23.16
			c3.37,2.52,6.61,5.64,11.15,5.34C423.16,218.23,427.58,211.48,425.4,205.33z"/>
		<path class="st0" d="M48.45,252.55c0,0,0.01,0.03,0.02,0.06C48.46,252.59,48.46,252.58,48.45,252.55z"/>
		<path class="st0" d="M368.13,242.51c-2.21,0.62-4.06,2.4-5.86,3.76c-10.25,7.72-20.87,14.99-31.71,21.84
			c-16.12,10.17-32.98,19.32-50.73,26.34c-18.05,7.14-37.07,12.05-56.48,13.28c-11.72,0.75-23.57,0.2-35.17-1.65
			c-16.53-2.63-32.55-7.56-47.94-14.13c-17.71-7.56-34.53-17.13-50.65-27.64c-8.75-5.71-17.36-11.67-25.73-17.94
			c-2.61-1.96-5.12-4.37-8.63-4.14c-5.05,0.33-8.48,5.56-6.79,10.32c1.08,3.02,2.49,5.95,3.94,8.8c1.96,3.85,4.07,7.62,6.35,11.3
			c2.27,3.65,4.62,7.28,7.17,10.75c10.77,14.65,23.22,27.9,37.45,39.24c15.08,12.01,31.95,21.8,49.98,28.63
			c4.53,1.72,9.12,3.25,13.78,4.57c4.62,1.32,9.29,2.33,13.99,3.32c4.26,0.9,8.65,1.58,12.99,2.01c3.47,0.34,6.95,0.75,10.44,0.86
			c5.55,0.17,11.04,0.33,16.59,0.05c9.98-0.5,19.9-1.89,29.63-4.16c18.9-4.41,36.96-12.08,53.44-22.31
			c16.4-10.18,31.25-22.86,44.01-37.35c8.21-9.33,15.54-19.4,21.76-30.16c2.25-3.88,4.32-7.87,6.14-11.97
			c1.26-2.84,2.59-5.7,1.43-8.84C376.13,243.53,371.97,241.42,368.13,242.51z"/>
		<path class="st0" d="M48.47,252.61C48.47,252.63,48.47,252.63,48.47,252.61L48.47,252.61z"/>
	</g>
</g>
</svg>
