<?xml version="1.0" encoding="utf-8"?>
<!-- Generator: Adobe Illustrator 23.0.1, SVG Export Plug-In . SVG Version: 6.00 Build 0)  -->
<svg version="1.1" id="Capa_1" xmlns="http://www.w3.org/2000/svg" xmlns:xlink="http://www.w3.org/1999/xlink" x="0px" y="0px"
	 viewBox="0 0 425.97 425.97" style="enable-background:new 0 0 425.97 425.97;" xml:space="preserve">
<style type="text/css">
	.st0{fill:#FFFFFF;}
</style>
<path class="st0" d="M425.39,205.3C425.35,205.2,425.38,205.25,425.39,205.3L425.39,205.3z"/>
<path class="st0" d="M416.63,200.2c-4.53-0.3-7.78,2.82-11.15,5.34c-10.8,8.09-21.92,15.79-33.22,23.16
	c-20.81,13.57-42.52,25.92-65.38,35.68c-15.04,6.42-30.55,11.62-46.45,15.25c12.47-12.27,20.2-29.34,20.2-48.21
	c0-37.37-30.3-67.67-67.67-67.67c-37.37,0-67.67,30.3-67.67,67.67c0,5.34,0.64,10.53,1.81,15.51c4.08-4.41,9.91-7.17,16.4-7.17
	c12.34,0,22.33,10,22.33,22.33c0,8.38-4.62,15.66-11.44,19.48c-16.31-3.04-32.28-7.86-47.71-13.97
	c-22.91-9.07-44.68-20.88-65.49-34.01c-14.01-8.83-27.71-18.23-40.94-28.19c-2.33-1.75-4.71-4.04-7.56-4.85
	c-4.96-1.4-10.32,1.32-12.1,6.15c-1.5,4.05,0.22,7.74,1.85,11.41c2.35,5.29,5.03,10.44,7.93,15.46
	c8.04,13.89,17.49,26.88,28.1,38.93c16.47,18.7,35.64,35.07,56.81,48.22c21.28,13.21,44.58,23.12,68.99,28.81
	c12.56,2.93,25.38,4.73,38.25,5.37c7.17,0.36,14.26,0.15,21.41-0.07c4.5-0.14,9-0.66,13.48-1.1c5.6-0.55,11.26-1.43,16.77-2.59
	c6.06-1.28,12.1-2.58,18.05-4.28c6.01-1.71,11.94-3.69,17.79-5.9c23.28-8.83,45.06-21.47,64.52-36.97
	c18.38-14.63,34.45-31.75,48.35-50.65c3.29-4.48,6.33-9.16,9.25-13.88c2.94-4.74,5.66-9.61,8.19-14.58
	c1.87-3.68,3.7-7.46,5.08-11.36C427.58,207.37,423.16,200.62,416.63,200.2z"/>
<path class="st0" d="M48.45,252.55c0,0,0.01,0.03,0.02,0.06C48.46,252.59,48.46,252.58,48.45,252.55z"/>
<path class="st0" d="M48.47,252.61C48.47,252.63,48.47,252.63,48.47,252.61L48.47,252.61z"/>
</svg>
