<?xml version="1.0" encoding="iso-8859-1"?>
<!-- Generator: Adobe Illustrator 19.0.0, SVG Export Plug-In . SVG Version: 6.00 Build 0)  -->
<svg version="1.1" id="Layer_1" xmlns="http://www.w3.org/2000/svg" xmlns:xlink="http://www.w3.org/1999/xlink" x="0px" y="0px"
	 viewBox="0 0 511.997 511.997" style="enable-background:new 0 0 511.997 511.997;" xml:space="preserve">
<g>
	<g>
		<g>
			<path d="M217.455,0.401c-10.176-1.941-19.989,3.435-23.872,12.864l-192,469.333c-2.688,6.571-1.92,14.059,2.048,19.968
				c3.947,5.888,10.603,9.429,17.707,9.429h192c11.776,0,21.333-9.536,21.333-21.333V21.329
				C234.671,11.132,227.461,2.364,217.455,0.401z"/>
			<path d="M510.413,482.599l-192-469.333c-3.861-9.429-13.696-14.827-23.872-12.864c-10.005,1.963-17.216,10.731-17.216,20.928
				v469.333c0,11.797,9.536,21.333,21.333,21.333h192c7.104,0,13.76-3.541,17.707-9.429
				C512.333,496.657,513.101,489.169,510.413,482.599z"/>
		</g>
	</g>
</g>
<g>
</g>
<g>
</g>
<g>
</g>
<g>
</g>
<g>
</g>
<g>
</g>
<g>
</g>
<g>
</g>
<g>
</g>
<g>
</g>
<g>
</g>
<g>
</g>
<g>
</g>
<g>
</g>
<g>
</g>
</svg>
