<?xml version="1.0" encoding="utf-8"?>
<!-- Generator: Adobe Illustrator 23.0.1, SVG Export Plug-In . SVG Version: 6.00 Build 0)  -->
<svg version="1.1" id="Layer_1" xmlns="http://www.w3.org/2000/svg" xmlns:xlink="http://www.w3.org/1999/xlink" x="0px" y="0px"
	 viewBox="0 0 512.01 512.01" style="enable-background:new 0 0 512.01 512.01;" xml:space="preserve">
<style type="text/css">
	.st0{fill:#FFFFFF;}
</style>
<g>
	<g>
		<g>
			<path class="st0" d="M490.67,277.34H21.34c-10.2,0-18.97,7.21-20.93,17.22s3.41,20.01,12.86,23.87l469.33,192
				c2.58,1.07,5.33,1.58,8.06,1.58c4.16,0,8.34-1.24,11.9-3.63c5.89-3.95,9.43-10.6,9.43-17.71v-192
				C512.01,286.9,502.47,277.34,490.67,277.34z"/>
			<path class="st0" d="M21.33,234.67h469.33c11.8,0,21.33-9.56,21.33-21.33v-192c0-7.1-3.54-13.74-9.43-17.71
				c-5.93-3.97-13.42-4.74-19.97-2.05l-469.33,192c-9.43,3.86-14.83,13.87-12.86,23.87C2.37,227.46,11.13,234.67,21.33,234.67z"/>
		</g>
	</g>
</g>
</svg>
