<?xml version="1.0" encoding="iso-8859-1"?>
<!-- Generator: Adobe Illustrator 19.0.0, SVG Export Plug-In . SVG Version: 6.00 Build 0)  -->
<svg version="1.1" id="Layer_1" xmlns="http://www.w3.org/2000/svg" xmlns:xlink="http://www.w3.org/1999/xlink" x="0px" y="0px"
	 viewBox="0 0 512.007 512.007" style="enable-background:new 0 0 512.007 512.007;" xml:space="preserve">
<g>
	<g>
		<g>
			<path d="M490.672,277.34H21.339c-10.197,0-18.965,7.211-20.928,17.216c-1.963,10.005,3.413,20.011,12.864,23.872l469.333,192
				c2.581,1.067,5.333,1.579,8.064,1.579c4.16,0,8.341-1.237,11.904-3.627c5.888-3.947,9.429-10.603,9.429-17.707v-192
				C512.005,286.898,502.469,277.34,490.672,277.34z"/>
			<path d="M21.33,234.671h469.333c11.797,0,21.333-9.557,21.333-21.333v-192c0-7.104-3.541-13.739-9.429-17.707
				c-5.931-3.968-13.419-4.736-19.968-2.048l-469.333,192C3.837,197.445-1.56,207.45,0.402,217.455
				C2.365,227.461,11.133,234.671,21.33,234.671z"/>
		</g>
	</g>
</g>
<g>
</g>
<g>
</g>
<g>
</g>
<g>
</g>
<g>
</g>
<g>
</g>
<g>
</g>
<g>
</g>
<g>
</g>
<g>
</g>
<g>
</g>
<g>
</g>
<g>
</g>
<g>
</g>
<g>
</g>
</svg>
