<?xml version="1.0" encoding="utf-8"?>
<!-- Generator: Adobe Illustrator 23.0.1, SVG Export Plug-In . SVG Version: 6.00 Build 0)  -->
<svg version="1.1" id="Layer_1" xmlns="http://www.w3.org/2000/svg" xmlns:xlink="http://www.w3.org/1999/xlink" x="0px" y="0px"
	 viewBox="0 0 512 512" style="enable-background:new 0 0 512 512;" xml:space="preserve">
<style type="text/css">
	.st0{fill:#FFFFFF;}
</style>
<g>
	<g>
		<g>
			<path class="st0" d="M217.46,0.4c-10.18-1.94-19.99,3.43-23.87,12.86L1.58,482.6c-2.69,6.57-1.92,14.06,2.05,19.97
				c3.95,5.89,10.6,9.43,17.71,9.43h192c11.78,0,21.33-9.54,21.33-21.33V21.33C234.67,11.13,227.46,2.36,217.46,0.4z"/>
			<path class="st0" d="M510.41,482.6l-192-469.33c-3.86-9.43-13.7-14.83-23.87-12.86c-10.01,1.96-17.22,10.73-17.22,20.93v469.33
				c0,11.8,9.54,21.33,21.33,21.33h192c7.1,0,13.76-3.54,17.71-9.43C512.33,496.66,513.1,489.17,510.41,482.6z"/>
		</g>
	</g>
</g>
</svg>
