<?xml version="1.0" encoding="utf-8"?>
<!-- Generator: Adobe Illustrator 23.0.1, SVG Export Plug-In . SVG Version: 6.00 Build 0)  -->
<svg version="1.1" id="Capa_1" xmlns="http://www.w3.org/2000/svg" xmlns:xlink="http://www.w3.org/1999/xlink" x="0px" y="0px"
	 viewBox="0 0 60 60" style="enable-background:new 0 0 60 60;" xml:space="preserve">
<style type="text/css">
	.st0{fill:#FFFFFF;}
</style>
<g>
	<path class="st0" d="M47,30.5c-7.17,0-13,5.83-13,13s5.83,13,13,13s13-5.83,13-13S54.17,30.5,47,30.5z M47,54.5
		c-6.06,0-11-4.94-11-11s4.94-11,11-11s11,4.94,11,11S53.06,54.5,47,54.5z"/>
	<path class="st0" d="M53,42.5h-5v-5c0-0.55-0.45-1-1-1s-1,0.45-1,1v5h-5c-0.55,0-1,0.45-1,1s0.45,1,1,1h5v5c0,0.55,0.45,1,1,1
		s1-0.45,1-1v-5h5c0.55,0,1-0.45,1-1S53.55,42.5,53,42.5z"/>
	<path class="st0" d="M26.51,10.5l-5-7H0v53h37.71c-4.05-2.91-6.71-7.64-6.71-13c0-8.82,7.18-16,16-16c5.36,0,10.09,2.66,13,6.71
		V19.5v-2v-7H26.51z M58,17.5H31.51l-3.57-5H58V17.5z"/>
</g>
</svg>
