<?xml version="1.0" encoding="iso-8859-1"?>
<!-- Generator: Adobe Illustrator 18.0.0, SVG Export Plug-In . SVG Version: 6.00 Build 0)  -->
<!DOCTYPE svg PUBLIC "-//W3C//DTD SVG 1.1//EN" "http://www.w3.org/Graphics/SVG/1.1/DTD/svg11.dtd">
<svg version="1.1" id="Capa_1" xmlns="http://www.w3.org/2000/svg" xmlns:xlink="http://www.w3.org/1999/xlink" x="0px" y="0px"
	 viewBox="0 0 60 60" style="enable-background:new 0 0 60 60;" xml:space="preserve">
<g>
	<path d="M47,30.5c-7.168,0-13,5.832-13,13s5.832,13,13,13s13-5.832,13-13S54.168,30.5,47,30.5z M47,54.5c-6.065,0-11-4.935-11-11
		s4.935-11,11-11s11,4.935,11,11S53.065,54.5,47,54.5z"/>
	<path d="M53,42.5h-5v-5c0-0.553-0.448-1-1-1s-1,0.447-1,1v5h-5c-0.552,0-1,0.447-1,1s0.448,1,1,1h5v5c0,0.553,0.448,1,1,1
		s1-0.447,1-1v-5h5c0.552,0,1-0.447,1-1S53.552,42.5,53,42.5z"/>
	<path d="M26.515,10.5l-5-7H0v53h37.708C33.655,53.594,31,48.856,31,43.5c0-8.822,7.178-16,16-16c5.356,0,10.094,2.655,13,6.708
		V19.5v-2v-7H26.515z M58,17.5H31.515l-3.571-5H58V17.5z"/>
</g>
<g>
</g>
<g>
</g>
<g>
</g>
<g>
</g>
<g>
</g>
<g>
</g>
<g>
</g>
<g>
</g>
<g>
</g>
<g>
</g>
<g>
</g>
<g>
</g>
<g>
</g>
<g>
</g>
<g>
</g>
</svg>
