<?xml version="1.0" encoding="utf-8"?>
<!-- Generator: Adobe Illustrator 23.0.1, SVG Export Plug-In . SVG Version: 6.00 Build 0)  -->
<svg version="1.1" id="Capa_1" xmlns="http://www.w3.org/2000/svg" xmlns:xlink="http://www.w3.org/1999/xlink" x="0px" y="0px"
	 viewBox="0 0 225.69 225.69" style="enable-background:new 0 0 225.69 225.69;" xml:space="preserve">
<style type="text/css">
	.st0{fill:#FFFFFF;}
</style>
<path class="st0" d="M8.43,78.35h208.84c2.39,0,4.6,0.97,6.21,2.73s2.39,4.04,2.18,6.43l-10.22,117.15
	c-0.38,4.38-3.99,7.69-8.39,7.69H21.4c-4.3,0-7.9-3.22-8.37-7.5L0.05,87.7c-0.27-2.41,0.48-4.74,2.1-6.55
	C3.77,79.34,6,78.35,8.43,78.35z M214.51,63.35V44.81c0-4.14-2.52-7.47-6.67-7.47h-83.33v-2.34c0-12.22-8.18-21.66-19.25-21.66
	H30.43c-11.07,0-20.92,9.44-20.92,21.66v24.95c0,1.23,0.68,2.38,1.27,3.39H214.51z"/>
</svg>
