<?xml version="1.0" encoding="utf-8"?>
<!-- Generator: Adobe Illustrator 23.0.1, SVG Export Plug-In . SVG Version: 6.00 Build 0)  -->
<svg version="1.1" id="Capa_1" xmlns="http://www.w3.org/2000/svg" xmlns:xlink="http://www.w3.org/1999/xlink" x="0px" y="0px"
	 viewBox="0 0 45.97 45.97" style="enable-background:new 0 0 45.97 45.97;" xml:space="preserve">
<style type="text/css">
	.st0{fill:#FFFFFF;}
</style>
<g>
	<g>
		<g>
			<path class="st0" d="M9.63,44.68c-1.15,1.16-2.89,1.51-4.41,0.88c-1.51-0.62-2.5-2.1-2.5-3.74V4.04c0-1.64,0.99-3.11,2.5-3.74
				c1.51-0.62,3.25-0.28,4.41,0.88l17.86,17.95c2.09,2.1,2.09,5.49,0,7.59L9.63,44.68z"/>
		</g>
		<g>
			<g>
				<path class="st0" d="M38.25,45.97c-2.76,0-5-2.24-5-5V5c0-2.76,2.24-5,5-5c2.76,0,5,2.24,5,5v35.97
					C43.25,43.74,41.01,45.97,38.25,45.97z"/>
			</g>
		</g>
	</g>
</g>
</svg>
