<?xml version="1.0" encoding="utf-8"?>
<!-- Generator: Adobe Illustrator 24.1.3, SVG Export Plug-In . SVG Version: 6.00 Build 0)  -->
<svg version="1.1" id="Capa_1" xmlns="http://www.w3.org/2000/svg" xmlns:xlink="http://www.w3.org/1999/xlink" x="0px" y="0px"
	 viewBox="0 0 488.7 488.7" style="enable-background:new 0 0 488.7 488.7;" xml:space="preserve">
<g>
	<g>
		<g>
			<path d="M151.6,20.1H14.3c-3.2,0-5.8,2.6-5.8,5.8v88.5c0,3.2,2.6,5.8,5.8,5.8h137.4c3.2,0,5.8-2.6,5.8-5.8V25.9
				C157.5,22.7,154.9,20.1,151.6,20.1z M124.2,59.9l-22,22L68.7,48.4c-0.5-0.5-1.2-0.5-1.6,0L45.8,69.6l-9.7-9.7
				c-0.5-0.5-1.2-0.5-1.7,0L18.9,75.4V30.5h128V81l-21.1-21.1C125.4,59.4,124.7,59.4,124.2,59.9z"/>
		</g>
	</g>
	<g>
		<g>
			<path d="M106.7,36.3c-7.3,0-13.3,6-13.3,13.3c0,7.3,6,13.3,13.3,13.3c7.3,0,13.3-6,13.3-13.3S114,36.3,106.7,36.3z"/>
		</g>
	</g>
</g>
<g>
	<g>
		<g>
			<path d="M313.4,20.1H176.1c-3.2,0-5.8,2.6-5.8,5.8v88.5c0,3.2,2.6,5.8,5.8,5.8h137.4c3.2,0,5.8-2.6,5.8-5.8V25.9
				C319.3,22.7,316.7,20.1,313.4,20.1z M286,59.9l-22,22l-33.5-33.5c-0.5-0.5-1.2-0.5-1.6,0l-21.3,21.3l-9.7-9.7
				c-0.5-0.5-1.2-0.5-1.7,0l-15.5,15.4V30.5h128V81l-21.1-21.1C287.2,59.4,286.5,59.4,286,59.9z"/>
		</g>
	</g>
	<g>
		<g>
			<path d="M268.5,36.3c-7.3,0-13.3,6-13.3,13.3c0,7.3,6,13.3,13.3,13.3s13.3-6,13.3-13.3S275.8,36.3,268.5,36.3z"/>
		</g>
	</g>
</g>
<g>
	<g>
		<g>
			<path d="M475.2,20.1H337.9c-3.2,0-5.8,2.6-5.8,5.8v88.5c0,3.2,2.6,5.8,5.8,5.8h137.4c3.2,0,5.8-2.6,5.8-5.8V25.9
				C481.1,22.7,478.5,20.1,475.2,20.1z M447.8,59.9l-22,22l-33.5-33.5c-0.5-0.5-1.2-0.5-1.6,0l-21.3,21.3l-9.7-9.7
				c-0.5-0.5-1.2-0.5-1.7,0l-15.5,15.4V30.5h128V81l-21.1-21.1C449,59.4,448.3,59.4,447.8,59.9z"/>
		</g>
	</g>
	<g>
		<g>
			<path d="M430.3,36.3c-7.3,0-13.3,6-13.3,13.3c0,7.3,6,13.3,13.3,13.3c7.3,0,13.3-6,13.3-13.3S437.6,36.3,430.3,36.3z"/>
		</g>
	</g>
</g>
<g>
	<g>
		<g>
			<path d="M151.6,137.2H14.3c-3.2,0-5.8,2.6-5.8,5.8v88.5c0,3.2,2.6,5.8,5.8,5.8h137.4c3.2,0,5.8-2.6,5.8-5.8V143
				C157.5,139.8,154.9,137.2,151.6,137.2z M124.2,177l-22,22l-33.5-33.5c-0.5-0.5-1.2-0.5-1.6,0l-21.3,21.3l-9.7-9.7
				c-0.5-0.5-1.2-0.5-1.7,0l-15.5,15.4v-44.8h128v50.5L125.9,177C125.4,176.6,124.7,176.6,124.2,177z"/>
		</g>
	</g>
	<g>
		<g>
			<path d="M106.7,153.4c-7.3,0-13.3,6-13.3,13.3c0,7.3,6,13.3,13.3,13.3c7.3,0,13.3-6,13.3-13.3C120,159.4,114,153.4,106.7,153.4z"
				/>
		</g>
	</g>
</g>
<g>
	<g>
		<g>
			<path d="M313.4,137.2H176.1c-3.2,0-5.8,2.6-5.8,5.8v88.5c0,3.2,2.6,5.8,5.8,5.8h137.4c3.2,0,5.8-2.6,5.8-5.8V143
				C319.3,139.8,316.7,137.2,313.4,137.2z M286,177l-22,22l-33.5-33.5c-0.5-0.5-1.2-0.5-1.6,0l-21.3,21.3l-9.7-9.7
				c-0.5-0.5-1.2-0.5-1.7,0l-15.5,15.4v-44.8h128v50.5L287.6,177C287.2,176.6,286.5,176.6,286,177z"/>
		</g>
	</g>
	<g>
		<g>
			<path d="M268.5,153.4c-7.3,0-13.3,6-13.3,13.3c0,7.3,6,13.3,13.3,13.3s13.3-6,13.3-13.3C281.8,159.4,275.8,153.4,268.5,153.4z"/>
		</g>
	</g>
</g>
<g>
	<g>
		<g>
			<path d="M475.2,137.2H337.9c-3.2,0-5.8,2.6-5.8,5.8v88.5c0,3.2,2.6,5.8,5.8,5.8h137.4c3.2,0,5.8-2.6,5.8-5.8V143
				C481.1,139.8,478.5,137.2,475.2,137.2z M447.8,177l-22,22l-33.5-33.5c-0.5-0.5-1.2-0.5-1.6,0l-21.3,21.3l-9.7-9.7
				c-0.5-0.5-1.2-0.5-1.7,0l-15.5,15.4v-44.8h128v50.5L449.4,177C449,176.6,448.3,176.6,447.8,177z"/>
		</g>
	</g>
	<g>
		<g>
			<path d="M430.3,153.4c-7.3,0-13.3,6-13.3,13.3c0,7.3,6,13.3,13.3,13.3c7.3,0,13.3-6,13.3-13.3
				C443.6,159.4,437.6,153.4,430.3,153.4z"/>
		</g>
	</g>
</g>
<g>
	<g>
		<g>
			<path d="M151.6,254.4H14.3c-3.2,0-5.8,2.6-5.8,5.8v88.5c0,3.2,2.6,5.8,5.8,5.8h137.4c3.2,0,5.8-2.6,5.8-5.8v-88.5
				C157.5,257,154.9,254.4,151.6,254.4z M124.2,294.2l-22,22l-33.5-33.5c-0.5-0.5-1.2-0.5-1.6,0L45.8,304l-9.7-9.7
				c-0.5-0.5-1.2-0.5-1.7,0l-15.5,15.4v-44.8h128v50.5l-21.1-21.1C125.4,293.8,124.7,293.8,124.2,294.2z"/>
		</g>
	</g>
	<g>
		<g>
			<path d="M106.7,270.6c-7.3,0-13.3,6-13.3,13.3c0,7.3,6,13.3,13.3,13.3c7.3,0,13.3-6,13.3-13.3S114,270.6,106.7,270.6z"/>
		</g>
	</g>
</g>
<g>
	<g>
		<g>
			<path d="M313.4,254.4H176.1c-3.2,0-5.8,2.6-5.8,5.8v88.5c0,3.2,2.6,5.8,5.8,5.8h137.4c3.2,0,5.8-2.6,5.8-5.8v-88.5
				C319.3,257,316.7,254.4,313.4,254.4z M286,294.2l-22,22l-33.5-33.5c-0.5-0.5-1.2-0.5-1.6,0L207.6,304l-9.7-9.7
				c-0.5-0.5-1.2-0.5-1.7,0l-15.5,15.4v-44.8h128v50.5l-21.1-21.1C287.2,293.8,286.5,293.8,286,294.2z"/>
		</g>
	</g>
	<g>
		<g>
			<path d="M268.5,270.6c-7.3,0-13.3,6-13.3,13.3c0,7.3,6,13.3,13.3,13.3s13.3-6,13.3-13.3S275.8,270.6,268.5,270.6z"/>
		</g>
	</g>
</g>
<g>
	<g>
		<g>
			<path d="M475.2,254.4H337.9c-3.2,0-5.8,2.6-5.8,5.8v88.5c0,3.2,2.6,5.8,5.8,5.8h137.4c3.2,0,5.8-2.6,5.8-5.8v-88.5
				C481.1,257,478.5,254.4,475.2,254.4z M447.8,294.2l-22,22l-33.5-33.5c-0.5-0.5-1.2-0.5-1.6,0L369.4,304l-9.7-9.7
				c-0.5-0.5-1.2-0.5-1.7,0l-15.5,15.4v-44.8h128v50.5l-21.1-21.1C449,293.8,448.3,293.8,447.8,294.2z"/>
		</g>
	</g>
	<g>
		<g>
			<path d="M430.3,270.6c-7.3,0-13.3,6-13.3,13.3c0,7.3,6,13.3,13.3,13.3c7.3,0,13.3-6,13.3-13.3S437.6,270.6,430.3,270.6z"/>
		</g>
	</g>
</g>
<g>
	<g>
		<g>
			<path d="M151.6,371.6H14.3c-3.2,0-5.8,2.6-5.8,5.8v88.5c0,3.2,2.6,5.8,5.8,5.8h137.4c3.2,0,5.8-2.6,5.8-5.8v-88.5
				C157.5,374.2,154.9,371.6,151.6,371.6z M124.2,411.4l-22,22l-33.5-33.5c-0.5-0.5-1.2-0.5-1.6,0l-21.3,21.3l-9.7-9.7
				c-0.5-0.5-1.2-0.5-1.7,0l-15.5,15.4V382h128v50.5l-21.1-21.1C125.4,410.9,124.7,410.9,124.2,411.4z"/>
		</g>
	</g>
	<g>
		<g>
			<path d="M106.7,387.7c-7.3,0-13.3,6-13.3,13.3c0,7.3,6,13.3,13.3,13.3c7.3,0,13.3-6,13.3-13.3S114,387.7,106.7,387.7z"/>
		</g>
	</g>
</g>
<g>
	<g>
		<g>
			<path d="M313.4,371.6H176.1c-3.2,0-5.8,2.6-5.8,5.8v88.5c0,3.2,2.6,5.8,5.8,5.8h137.4c3.2,0,5.8-2.6,5.8-5.8v-88.5
				C319.3,374.2,316.7,371.6,313.4,371.6z M286,411.4l-22,22l-33.5-33.5c-0.5-0.5-1.2-0.5-1.6,0l-21.3,21.3l-9.7-9.7
				c-0.5-0.5-1.2-0.5-1.7,0l-15.5,15.4V382h128v50.5l-21.1-21.1C287.2,410.9,286.5,410.9,286,411.4z"/>
		</g>
	</g>
	<g>
		<g>
			<path d="M268.5,387.7c-7.3,0-13.3,6-13.3,13.3c0,7.3,6,13.3,13.3,13.3s13.3-6,13.3-13.3S275.8,387.7,268.5,387.7z"/>
		</g>
	</g>
</g>
<g>
	<g>
		<g>
			<path d="M475.2,371.6H337.9c-3.2,0-5.8,2.6-5.8,5.8v88.5c0,3.2,2.6,5.8,5.8,5.8h137.4c3.2,0,5.8-2.6,5.8-5.8v-88.5
				C481.1,374.2,478.5,371.6,475.2,371.6z M447.8,411.4l-22,22l-33.5-33.5c-0.5-0.5-1.2-0.5-1.6,0l-21.3,21.3l-9.7-9.7
				c-0.5-0.5-1.2-0.5-1.7,0l-15.5,15.4V382h128v50.5l-21.1-21.1C449,410.9,448.3,410.9,447.8,411.4z"/>
		</g>
	</g>
	<g>
		<g>
			<path d="M430.3,387.7c-7.3,0-13.3,6-13.3,13.3c0,7.3,6,13.3,13.3,13.3c7.3,0,13.3-6,13.3-13.3S437.6,387.7,430.3,387.7z"/>
		</g>
	</g>
</g>
</svg>
