<?xml version="1.0" encoding="utf-8"?>
<!-- Generator: Adobe Illustrator 23.0.1, SVG Export Plug-In . SVG Version: 6.00 Build 0)  -->
<svg version="1.1" id="Capa_1" xmlns="http://www.w3.org/2000/svg" xmlns:xlink="http://www.w3.org/1999/xlink" x="0px" y="0px"
	 viewBox="0 0 488.66 488.66" style="enable-background:new 0 0 488.66 488.66;" xml:space="preserve">
<style type="text/css">
	.st0{fill:#FFFFFF;}
</style>
<g>
	<path class="st0" d="M448.1,0.01H192.86c-22.36,0-40.55,18.19-40.55,40.55v35.6H116.7c-22.36,0-40.55,18.19-40.55,40.55v35.61
		h-35.6C18.18,152.32,0,170.51,0,192.86V448.1c0,22.35,18.18,40.55,40.55,40.55H295.8c22.36,0,40.55-18.2,40.55-40.55V412.5h35.62
		c22.36,0,40.55-18.2,40.55-40.55v-35.61h35.6c22.36,0,40.55-18.19,40.55-40.55V40.55C488.66,18.2,470.47,0.01,448.1,0.01z
		 M34.36,192.86c0-3.41,2.78-6.19,6.19-6.19H295.8c3.4,0,6.19,2.78,6.19,6.19v182.93l-77.82-5.78L188.5,329.1
		c-4.56-5.2-12.38-5.89-17.75-1.6l-29,23.14l-32.38-72.71c-1.95-4.36-6.16-7.3-10.93-7.61c-4.82-0.35-9.31,2.04-11.83,6.1
		l-52.26,84.82V192.86z M301.99,408.73H35.36l60.38-98.02l29.22,65.62c1.63,3.64,4.85,6.33,8.73,7.27
		c3.84,0.95,7.95,0.05,11.09-2.44l32.4-25.84l31.05,35.61c2.23,2.55,5.38,4.13,8.76,4.38l85.01,6.32L301.99,408.73L301.99,408.73z
		 M301.99,448.11c0,3.41-2.79,6.19-6.19,6.19H40.55c-3.41,0-6.19-2.78-6.19-6.19V434.5h267.63V448.11z M378.15,371.95
		c0,3.42-2.78,6.19-6.19,6.19h-35.62V192.86c0-22.35-18.19-40.55-40.55-40.55H110.51V116.7c0-3.42,2.78-6.19,6.19-6.19h255.27
		c3.4,0,6.19,2.78,6.19,6.19L378.15,371.95L378.15,371.95z M454.3,295.79c0,3.41-2.79,6.19-6.19,6.19h-35.6V116.7
		c0-22.35-18.18-40.55-40.55-40.55H186.67v-35.6c0-3.41,2.79-6.19,6.19-6.19H448.1c3.41,0,6.19,2.78,6.19,6.19L454.3,295.79
		L454.3,295.79z"/>
	<path class="st0" d="M219.85,294.72c22.15,0,40.14-17.97,40.14-40.14c0-22.16-17.99-40.13-40.14-40.13
		c-22.16,0-40.15,17.97-40.15,40.13C179.71,276.75,197.69,294.72,219.85,294.72z"/>
</g>
</svg>
