<?xml version="1.0" encoding="utf-8"?>
<!-- Generator: Adobe Illustrator 23.0.1, SVG Export Plug-In . SVG Version: 6.00 Build 0)  -->
<svg version="1.1" id="Capa_1" xmlns="http://www.w3.org/2000/svg" xmlns:xlink="http://www.w3.org/1999/xlink" x="0px" y="0px"
	 viewBox="0 0 47.61 47.61" style="enable-background:new 0 0 47.61 47.61;" xml:space="preserve">
<style type="text/css">
	.st0{fill:#FFFFFF;}
</style>
<g>
	<path class="st0" d="M17.99,40.98c0,3.66-2.97,6.63-6.63,6.63l0,0c-3.66,0-6.63-2.97-6.63-6.63V6.63C4.73,2.97,7.7,0,11.36,0l0,0
		c3.66,0,6.63,2.97,6.63,6.63V40.98z"/>
	<path class="st0" d="M42.88,40.98c0,3.66-2.97,6.63-6.63,6.63l0,0c-3.66,0-6.63-2.97-6.63-6.63V6.63c0-3.66,2.97-6.63,6.63-6.63
		l0,0c3.66,0,6.63,2.97,6.63,6.63V40.98z"/>
</g>
</svg>
