<?xml version="1.0" encoding="UTF-8" standalone="no"?>
<!DOCTYPE svg PUBLIC "-//W3C//DTD SVG 1.1//EN" "http://www.w3.org/Graphics/SVG/1.1/DTD/svg11.dtd">
<svg width="100%" height="100%" viewBox="0 0 504 504" version="1.1" xmlns="http://www.w3.org/2000/svg" xmlns:xlink="http://www.w3.org/1999/xlink" xml:space="preserve" xmlns:serif="http://www.serif.com/" style="fill-rule:evenodd;clip-rule:evenodd;stroke-linejoin:round;stroke-miterlimit:2;">
    <g>
        <g>
            <path d="M484.31,-1L19.69,-1C8.81,-1 0,7.81 0,18.68L0,317.93C0,328.81 8.81,337.62 19.69,337.62L484.31,337.62C495.19,337.62 504,328.81 504,317.93L504,18.68C504,7.81 495.19,-1 484.31,-1ZM391.5,133.7L317.04,208.18L203.71,94.85C202.17,93.31 199.69,93.31 198.15,94.85L126.27,166.74L93.45,133.93C91.91,132.39 89.28,132.39 87.74,133.93L35.44,186.09L35.44,34.43L468.56,34.43L468.56,205.22L397.06,133.7C395.52,132.16 393.04,132.16 391.5,133.7Z" style="fill-rule:nonzero;"/>
        </g>
    </g>
    <g>
        <g>
            <path d="M311.3,76.58C296,76.58 283.55,89.02 283.55,104.33C283.55,119.63 296,132.08 311.3,132.08C326.6,132.08 339.05,119.63 339.05,104.33C339.05,89.03 326.6,76.58 311.3,76.58Z" style="fill-rule:nonzero;"/>
        </g>
    </g>
    <g transform="matrix(1,0,0,1,133.4404,471.0059)">
        <path d="M13.934,0L13.934,-129.286L62.703,-129.286C71.287,-129.286 77.842,-128.874 82.369,-128.051C88.719,-126.993 94.04,-124.979 98.331,-122.01C102.623,-119.041 106.077,-114.882 108.694,-109.532C111.31,-104.181 112.618,-98.302 112.618,-91.894C112.618,-80.899 109.12,-71.595 102.124,-63.982C95.127,-56.368 82.487,-52.561 64.202,-52.561L31.043,-52.561L31.043,0L13.934,0ZM31.043,-67.818L64.467,-67.818C75.52,-67.818 83.369,-69.876 88.013,-73.991C92.658,-78.107 94.98,-83.898 94.98,-91.364C94.98,-96.773 93.613,-101.403 90.879,-105.254C88.146,-109.105 84.544,-111.648 80.076,-112.883C77.195,-113.647 71.875,-114.029 64.114,-114.029L31.043,-114.029L31.043,-67.818Z" style="fill:rgb(35,31,32);fill-rule:nonzero;"/>
        <path d="M132.196,0L132.196,-93.657L146.483,-93.657L146.483,-79.459C150.128,-86.102 153.494,-90.483 156.581,-92.599C159.667,-94.716 163.063,-95.774 166.767,-95.774C172.117,-95.774 177.555,-94.069 183.082,-90.659L177.614,-75.931C173.734,-78.224 169.853,-79.371 165.973,-79.371C162.504,-79.371 159.388,-78.327 156.625,-76.24C153.862,-74.153 151.892,-71.257 150.716,-67.553C148.952,-61.909 148.07,-55.736 148.07,-49.033L148.07,0L132.196,0Z" style="fill:rgb(35,31,32);fill-rule:nonzero;"/>
        <path d="M186.609,-46.829C186.609,-64.173 191.43,-77.019 201.072,-85.368C209.127,-92.305 218.946,-95.774 230.528,-95.774C243.403,-95.774 253.927,-91.556 262.1,-83.119C270.272,-74.682 274.358,-63.026 274.358,-48.152C274.358,-36.099 272.55,-26.619 268.934,-19.71C265.319,-12.802 260.057,-7.437 253.148,-3.616C246.24,0.206 238.7,2.117 230.528,2.117C217.417,2.117 206.819,-2.087 198.735,-10.495C190.651,-18.902 186.609,-31.013 186.609,-46.829ZM202.924,-46.829C202.924,-34.835 205.541,-25.854 210.773,-19.887C216.006,-13.919 222.591,-10.936 230.528,-10.936C238.406,-10.936 244.961,-13.934 250.194,-19.931C255.427,-25.928 258.043,-35.07 258.043,-47.358C258.043,-58.94 255.412,-67.715 250.15,-73.682C244.888,-79.65 238.347,-82.634 230.528,-82.634C222.591,-82.634 216.006,-79.665 210.773,-73.727C205.541,-67.788 202.924,-58.822 202.924,-46.829Z" style="fill:rgb(35,31,32);fill-rule:nonzero;"/>
        <path d="M292.878,-110.854L292.878,-129.286L308.752,-129.286L308.752,-110.854L292.878,-110.854ZM272.771,36.334L275.769,22.841C278.944,23.664 281.443,24.076 283.265,24.076C286.499,24.076 288.909,23.003 290.497,20.857C292.084,18.711 292.878,13.346 292.878,4.762L292.878,-93.657L308.752,-93.657L308.752,5.115C308.752,16.638 307.253,24.664 304.254,29.191C300.433,35.07 294.083,38.01 285.205,38.01C280.913,38.01 276.769,37.451 272.771,36.334Z" style="fill:rgb(35,31,32);fill-rule:nonzero;"/>
    </g>
</svg>
