<?xml version="1.0" encoding="utf-8"?>
<!-- Generator: Adobe Illustrator 23.0.1, SVG Export Plug-In . SVG Version: 6.00 Build 0)  -->
<svg version="1.1" id="Layer_1" xmlns="http://www.w3.org/2000/svg" xmlns:xlink="http://www.w3.org/1999/xlink" x="0px" y="0px"
	 viewBox="0 0 504 504" style="enable-background:new 0 0 504 504;" xml:space="preserve">
<style type="text/css">
	.st0{fill:#231F20;}
	.st1{font-family:'Arial-BoldMT';}
	.st2{font-size:180.6124px;}
</style>
<g>
	<g>
		<path d="M484.31-1H19.69C8.81-1,0,7.81,0,18.68v299.25c0,10.88,8.81,19.69,19.69,19.69h464.62c10.88,0,19.69-8.81,19.69-19.69
			V18.68C504,7.81,495.19-1,484.31-1z M391.5,133.7l-74.46,74.48L203.71,94.85c-1.54-1.54-4.02-1.54-5.56,0l-71.88,71.89
			l-32.82-32.81c-1.54-1.54-4.17-1.54-5.71,0l-52.3,52.16V34.43h433.12v170.79l-71.5-71.52C395.52,132.16,393.04,132.16,391.5,133.7
			z"/>
	</g>
</g>
<g>
	<g>
		<path d="M311.3,76.58c-15.3,0-27.75,12.44-27.75,27.75c0,15.3,12.45,27.75,27.75,27.75s27.75-12.45,27.75-27.75
			S326.6,76.58,311.3,76.58z"/>
	</g>
</g>
<text transform="matrix(1 0 0 1 133.4404 471.0059)" class="st0 st1 st2">Proj</text>
</svg>
