<?xml version="1.0" encoding="utf-8"?>
<!-- Generator: Adobe Illustrator 23.0.1, SVG Export Plug-In . SVG Version: 6.00 Build 0)  -->
<svg version="1.1" id="Layer_1" xmlns="http://www.w3.org/2000/svg" xmlns:xlink="http://www.w3.org/1999/xlink" x="0px" y="0px"
	 viewBox="0 0 491.81 491.81" style="enable-background:new 0 0 491.81 491.81;" xml:space="preserve">
<style type="text/css">
	.st0{fill:#FFFFFF;}
</style>
<g>
	<g>
		<path class="st0" d="M485.8,221.18L301.48,36.86c-5.86-5.84-14.64-7.62-22.32-4.44c-7.66,3.15-12.64,10.65-12.64,18.92v82
			c-117.84,4.83-220.65,84.4-253.58,198.41C-1.31,381.19-0.21,421.36,0.2,436.49l0.08,3.97c0,9.22,6.16,17.31,15.03,19.74
			c1.82,0.49,3.64,0.74,5.45,0.74c7.09,0,13.84-3.71,17.59-9.99c81.12-136.36,188.6-140.23,228.17-136.38v105.41
			c0,8.27,4.98,15.77,12.64,18.92c7.68,3.2,16.47,1.41,22.32-4.44L485.8,250.14C493.81,242.13,493.81,229.19,485.8,221.18z"/>
	</g>
</g>
</svg>
