<?xml version="1.0" encoding="utf-8"?>
<!-- Generator: Adobe Illustrator 23.0.1, SVG Export Plug-In . SVG Version: 6.00 Build 0)  -->
<svg version="1.1" id="Layer_1" xmlns="http://www.w3.org/2000/svg" xmlns:xlink="http://www.w3.org/1999/xlink" x="0px" y="0px"
	 viewBox="0 0 511.98 511.98" style="enable-background:new 0 0 511.98 511.98;" xml:space="preserve">
<style type="text/css">
	.st0{fill:#FFFFFF;}
</style>
<g>
	<g>
		<g>
			<path class="st0" d="M341.55,85.33c-0.08,0-0.15-0.01-0.23-0.01H222.16l27.58-27.58c8.33-8.33,8.33-21.84,0-30.17
				s-21.84-8.33-30.17,0l-64,64c-0.5,0.5-0.97,1.02-1.41,1.56c-0.2,0.25-0.38,0.51-0.57,0.76c-0.23,0.3-0.46,0.6-0.67,0.92
				c-0.2,0.3-0.38,0.62-0.56,0.93c-0.17,0.29-0.35,0.57-0.51,0.86c-0.17,0.32-0.31,0.64-0.46,0.97c-0.15,0.31-0.3,0.61-0.43,0.93
				c-0.13,0.31-0.24,0.64-0.35,0.95c-0.12,0.34-0.25,0.67-0.36,1.02c-0.1,0.32-0.17,0.64-0.25,0.96c-0.09,0.35-0.19,0.7-0.26,1.06
				c-0.07,0.37-0.12,0.75-0.17,1.12c-0.04,0.31-0.1,0.62-0.14,0.94c-0.07,0.69-0.1,1.39-0.1,2.08c0,0.01,0,0.01,0,0.02
				c0,0.01,0,0.01,0,0.02c0,0.69,0.04,1.39,0.1,2.08c0.03,0.32,0.09,0.63,0.14,0.94c0.05,0.38,0.1,0.75,0.17,1.12
				c0.07,0.36,0.17,0.71,0.26,1.06c0.08,0.32,0.15,0.64,0.25,0.96c0.1,0.35,0.24,0.68,0.36,1.02c0.11,0.32,0.22,0.64,0.35,0.95
				c0.13,0.32,0.29,0.62,0.43,0.93c0.15,0.32,0.3,0.65,0.46,0.96c0.16,0.29,0.34,0.58,0.51,0.86c0.18,0.31,0.36,0.62,0.56,0.93
				c0.21,0.32,0.45,0.61,0.68,0.92c0.19,0.25,0.36,0.51,0.57,0.76c0.45,0.54,0.92,1.07,1.41,1.56l64,64
				c8.33,8.33,21.84,8.33,30.17,0s8.33-21.84,0-30.17l-27.58-27.58h118.98c0.06,0,0.11,0.01,0.17,0.01c70.78,0,128,57.22,128,128
				c0,31.07-12.41,60.3-34.12,82.03c-8.33,8.33-8.32,21.84,0.01,30.17s21.84,8.32,30.17-0.01c29.61-29.64,46.61-69.67,46.61-112.19
				C511.98,161.74,435.78,85.46,341.55,85.33z"/>
			<path class="st0" d="M358.39,418.08c0.23-0.3,0.46-0.6,0.67-0.92c0.2-0.3,0.38-0.62,0.57-0.93c0.17-0.29,0.35-0.57,0.51-0.86
				c0.17-0.32,0.31-0.64,0.47-0.97c0.14-0.31,0.3-0.61,0.43-0.92c0.13-0.32,0.24-0.64,0.35-0.96c0.12-0.34,0.25-0.67,0.35-1.01
				c0.1-0.32,0.17-0.65,0.25-0.97c0.09-0.35,0.19-0.7,0.26-1.05c0.07-0.38,0.12-0.75,0.17-1.13c0.04-0.31,0.1-0.62,0.14-0.93
				c0.14-1.4,0.14-2.81,0-4.21c-0.03-0.32-0.09-0.62-0.14-0.93c-0.05-0.38-0.1-0.76-0.17-1.13c-0.07-0.36-0.17-0.7-0.26-1.06
				c-0.08-0.32-0.15-0.65-0.25-0.97c-0.1-0.35-0.23-0.68-0.36-1.01c-0.11-0.32-0.22-0.64-0.35-0.96c-0.13-0.31-0.28-0.61-0.43-0.92
				c-0.15-0.33-0.3-0.65-0.47-0.97c-0.16-0.29-0.34-0.57-0.51-0.86c-0.19-0.31-0.36-0.63-0.57-0.93c-0.21-0.32-0.45-0.61-0.67-0.91
				c-0.19-0.26-0.37-0.52-0.57-0.76c-0.44-0.54-0.9-1.05-1.39-1.54c-0.01-0.01-0.01-0.02-0.02-0.02l-64-64
				c-8.33-8.33-21.84-8.33-30.17,0c-8.33,8.33-8.33,21.84,0,30.17l27.58,27.58H170.84c-0.06,0-0.11-0.01-0.17-0.01
				c-70.78,0-128-57.22-128-128c0-31.07,12.41-60.3,34.12-82.03c8.33-8.34,8.32-21.84-0.01-30.17s-21.84-8.32-30.17,0.01
				C16.99,173.43,0,213.46,0,255.98c0,94.26,76.2,170.53,170.43,170.66c0.08,0,0.15,0.01,0.23,0.01h119.16l-27.58,27.58
				c-8.33,8.33-8.33,21.84,0,30.17c8.33,8.33,21.84,8.33,30.17,0l64-64c0,0,0.01-0.01,0.01-0.01c0.49-0.49,0.96-1.01,1.4-1.55
				C358.02,418.6,358.2,418.34,358.39,418.08z"/>
		</g>
	</g>
</g>
</svg>
