<?xml version="1.0" encoding="utf-8"?>
<!-- Generator: Adobe Illustrator 23.0.1, SVG Export Plug-In . SVG Version: 6.00 Build 0)  -->
<svg version="1.1" id="Capa_1" xmlns="http://www.w3.org/2000/svg" xmlns:xlink="http://www.w3.org/1999/xlink" x="0px" y="0px"
	 viewBox="0 0 45.97 45.97" style="enable-background:new 0 0 45.97 45.97;" xml:space="preserve">
<g>
	<g>
		<g>
			<path d="M36.34,1.29c1.15-1.16,2.9-1.51,4.41-0.88c1.51,0.62,2.5,2.1,2.5,3.74v37.79c0,1.64-0.99,3.11-2.5,3.74
				c-1.51,0.62-3.25,0.27-4.41-0.89L18.48,26.83c-2.09-2.1-2.09-5.49,0-7.59L36.34,1.29z"/>
		</g>
		<g>
			<g>
				<path d="M7.72,0c2.76,0,5,2.24,5,5l0,35.97c0,2.76-2.24,5-5,5c-2.76,0-5-2.24-5-5V5C2.72,2.24,4.96,0,7.72,0z"/>
			</g>
		</g>
	</g>
</g>
</svg>
