<?xml version="1.0"?>
<svg xmlns="http://www.w3.org/2000/svg" viewBox="0 0 32 32">
    <path d="M 8.15625 7 L 8.03125 7.8125 L 5.03125 23.8125 L 4.78125 25 L 6 25 L 26 25 L 26.84375 25 L 26.96875 24.1875 L 29.96875 8.1875 L 30.21875 7 L 29 7 L 9 7 L 8.15625 7 z M 9.8125 9 L 27.8125 9 L 27.4375 11 L 9.4375 11 L 9.8125 9 z M 2 11 L 2 13 L 5.25 13 L 5.5625 11 L 2 11 z M 9.0625 13 L 27.0625 13 L 25.1875 23 L 7.1875 23 L 9.0625 13 z M 2 15 L 2 17 L 4.59375 17 L 4.90625 15 L 2 15 z M 12.09375 15 L 11.90625 15.78125 L 11.03125 19.78125 L 10.75 21 L 12 21 L 21.5625 21 L 22.375 21 L 22.5625 20.21875 L 23.4375 16.21875 L 23.71875 15 L 22.46875 15 L 12.875 15 L 12.09375 15 z M 13.6875 17 L 21.21875 17 L 20.78125 19 L 13.25 19 L 13.6875 17 z M 2 19 L 2 21 L 3.9375 21 L 4.25 19 L 2 19 z"/>
</svg>
