<?xml version="1.0" encoding="utf-8"?>
<!-- Generator: Adobe Illustrator 23.0.1, SVG Export Plug-In . SVG Version: 6.00 Build 0)  -->
<svg version="1.1" id="Layer_1" xmlns="http://www.w3.org/2000/svg" xmlns:xlink="http://www.w3.org/1999/xlink" x="0px" y="0px"
	 viewBox="0 0 32 32" style="enable-background:new 0 0 32 32;" xml:space="preserve">
<style type="text/css">
	.st0{fill:#FFFFFF;}
</style>
<path class="st0" d="M8.16,7L8.03,7.81l-3,16L4.78,25H6h20h0.84l0.12-0.81l3-16L30.22,7H29H9H8.16z M9.81,9h18l-0.38,2h-18L9.81,9z
	 M2,11v2h3.25l0.31-2H2z M9.06,13h18l-1.88,10h-18L9.06,13z M2,15v2h2.59l0.31-2H2z M12.09,15l-0.19,0.78l-0.88,4L10.75,21H12h9.56
	h0.81l0.19-0.78l0.88-4L23.72,15h-1.25h-9.59H12.09z M13.69,17h7.53l-0.44,2h-7.53L13.69,17z M2,19v2h1.94l0.31-2H2z"/>
</svg>
