<?xml version="1.0" encoding="utf-8"?>
<!-- Generator: Adobe Illustrator 23.0.1, SVG Export Plug-In . SVG Version: 6.00 Build 0)  -->
<svg version="1.1" id="Capa_1" xmlns="http://www.w3.org/2000/svg" xmlns:xlink="http://www.w3.org/1999/xlink" x="0px" y="0px"
	 viewBox="0 0 512 512" style="enable-background:new 0 0 512 512;" xml:space="preserve">
<style type="text/css">
	.st0{fill:#FFFFFF;}
	.st1{fill:#FCFEFB;}
</style>
<g>
	<path class="st0" d="M415.75,65.12L366.44,15.8C356.32,5.68,342.6,0,328.29,0h-31.6v94.4c0,7.45-6.04,13.49-13.49,13.49H67.43
		c-7.45,0-13.49-6.04-13.49-13.49V0H26.97C12.08,0,0,12.08,0,26.97v377.61c0,14.9,12.08,26.97,26.97,26.97h377.61
		c14.9,0,26.97-12.08,26.97-26.97V103.26C431.56,88.95,425.87,75.23,415.75,65.12z M377.61,377.61H53.94V215.78h323.67V377.61z"/>
	<rect x="188.81" class="st0" width="53.94" height="80.92"/>
</g>
<polygon class="st1" points="268.17,323.33 404.46,459.63 394.75,469.38 258.46,333.09 "/>
<polygon class="st1" points="416.99,447.09 280.79,310.84 305.39,286.25 441.63,422.49 "/>
<polygon class="st1" points="454.08,410 317.83,273.75 330.07,261.52 466.27,397.81 "/>
<polygon class="st1" points="249.09,323.59 218.72,254.08 251.06,221.74 320.66,252.07 "/>
<path class="st1" d="M240.66,216.56c0.3,1.75-0.26,3.51-1.45,4.66l-20.88,20.96c-1.2,1.16-2.95,1.71-4.66,1.41
	c-1.75-0.34-3.17-1.45-3.89-3.08l-16.26-37.09c-0.9-2.01-0.43-4.36,1.07-5.86c1.5-1.54,3.94-2.01,5.86-1.11l37.17,16.26
	C239.21,213.39,240.32,214.81,240.66,216.56z"/>
<path class="st1" d="M503.36,442.39l-64,64.04c-2.1,2.1-5.43,2.1-7.53,0l-25.54-25.54c-2.1-2.05-2.1-5.39,0-7.49l64.08-64
	c2.01-2.1,5.39-2.1,7.44,0l25.54,25.54C505.46,437,505.46,440.33,503.36,442.39z"/>
</svg>
