<?xml version="1.0" encoding="utf-8"?>
<!-- Generator: Adobe Illustrator 23.0.1, SVG Export Plug-In . SVG Version: 6.00 Build 0)  -->
<svg version="1.1" id="Capa_1" xmlns="http://www.w3.org/2000/svg" xmlns:xlink="http://www.w3.org/1999/xlink" x="0px" y="0px"
	 viewBox="0 0 512 512" style="enable-background:new 0 0 512 512;" xml:space="preserve">
<style type="text/css">
	.st0{fill:#FFFFFF;}
</style>
<g>
	<path class="st0" d="M493.25,77.25l-58.51-58.51C422.74,6.74,406.46,0,389.49,0H352v112c0,8.84-7.16,16-16,16H80
		c-8.84,0-16-7.16-16-16V0H32C14.33,0,0,14.33,0,32v448c0,17.67,14.33,32,32,32h448c17.67,0,32-14.33,32-32V122.51
		C512,105.54,505.26,89.26,493.25,77.25z M448,448H64V256h384V448z"/>
	<rect x="224" class="st0" width="64" height="96"/>
</g>
</svg>
