<?xml version="1.0" encoding="utf-8"?>
<!-- Generator: Adobe Illustrator 23.0.1, SVG Export Plug-In . SVG Version: 6.00 Build 0)  -->
<svg version="1.1" id="Capa_1" xmlns="http://www.w3.org/2000/svg" xmlns:xlink="http://www.w3.org/1999/xlink" x="0px" y="0px"
	 viewBox="0 0 478.16 478.16" style="enable-background:new 0 0 478.16 478.16;" xml:space="preserve">
<style type="text/css">
	.st0{fill:#FFFFFF;}
</style>
<g>
	<path class="st0" d="M407.3,272.95V149.22c0-6.69-5.44-12.13-12.13-12.13h-204c-6.69,0-12.13,5.44-12.13,12.13v53.17H82.99
		c-6.69,0-12.13,5.44-12.13,12.13v123.72c0,6.69,5.44,12.14,12.13,12.14h204c6.68,0,12.13-5.45,12.13-12.14v-53.17h96.05
		C401.85,285.08,407.3,279.64,407.3,272.95z M287.22,338.25c0,0.13-0.11,0.24-0.24,0.24l-204.23-0.24l0.23-123.96l204.23,0.24
		L287.22,338.25L287.22,338.25z M395.4,272.95c0,0.13-0.11,0.23-0.23,0.23l-96.05-0.11v-58.54c0-6.69-5.44-12.13-12.13-12.13h-95.92
		l0.1-53.41l204.23,0.24L395.4,272.95L395.4,272.95L395.4,272.95z M13.38,250.33v-54.48c0-4.96,4.05-9.08,9.08-9.08
		s9.08,4.12,9.08,9.08v54.48c0,5.02-4.06,9.08-9.08,9.08S13.38,255.36,13.38,250.33z M464.78,107.56v54.47
		c0,5.02-4.05,9.08-9.08,9.08s-9.08-4.05-9.08-9.08v-54.47c0-5.02,4.05-9.08,9.08-9.08S464.78,102.53,464.78,107.56z M13.38,359.28
		v-54.47c0-4.96,4.05-9.08,9.08-9.08s9.08,4.11,9.08,9.08v54.47c0,5.02-4.06,9.08-9.08,9.08S13.38,364.3,13.38,359.28z M34.62,472.1
		c-1.7,2.3-4.36,3.63-7.26,3.63c-2,0-3.87-0.6-5.45-1.75c-5.33-4-8.53-10.36-8.53-17.01v-43.22c0-4.96,4.06-9.08,9.08-9.08
		s9.08,4.12,9.08,9.08v43.22c0,0.97,0.42,1.81,1.21,2.42C36.8,462.42,37.59,468.1,34.62,472.1z M104.11,9.08
		c0-5.02,4.11-9.08,9.08-9.08h54.47c5.02,0,9.08,4.05,9.08,9.08s-4.05,9.08-9.08,9.08h-54.47C108.22,18.16,104.11,14.1,104.11,9.08z
		 M322,9.08c0-5.02,4.11-9.08,9.08-9.08h54.47c5.02,0,9.08,4.05,9.08,9.08s-4.05,9.08-9.08,9.08h-54.47
		C326.11,18.16,322,14.1,322,9.08z M213.11,9.08c0-5.02,4.05-9.08,9.08-9.08h54.47c4.96,0,9.02,4.05,9.02,9.08s-4.05,9.08-9.02,9.08
		h-54.47C217.17,18.16,213.11,14.1,213.11,9.08z M67.79,9.08c0,5.02-4.06,9.08-9.08,9.08H34.56c-1.63,0-3.03,1.33-3.03,3.03v11.2
		v0.06c0,5.02-4.06,9.08-9.08,9.08s-9.08-4.06-9.08-9.08V21.18C13.38,9.5,22.88,0,34.56,0h24.15C63.74,0,67.79,4.05,67.79,9.08z
		 M13.38,141.38V86.91c0-4.96,4.05-9.02,9.08-9.02s9.08,4.06,9.08,9.02v54.47c0,5.02-4.06,9.08-9.08,9.08
		C17.43,150.46,13.38,146.41,13.38,141.38z M144.84,469.08c0,5.02-4.05,9.08-9.08,9.08H81.29c-5.02,0-9.08-4.05-9.08-9.08
		c0-5.02,4.06-9.08,9.08-9.08h54.47C140.79,460,144.84,464.05,144.84,469.08z M464.78,216.5v54.47c0,5.02-4.05,9.08-9.08,9.08
		s-9.08-4.05-9.08-9.08V216.5c0-4.96,4.05-9.08,9.08-9.08S464.78,211.53,464.78,216.5z M464.78,434.39v22.58
		c0,11.68-9.51,21.18-21.18,21.18h-35.46c-5.02,0-9.08-4.05-9.08-9.08c0-5.02,4.05-9.08,9.08-9.08h35.46c1.63,0,3.03-1.39,3.03-3.03
		V434.4c0-4.97,4.05-9.08,9.08-9.08S464.78,429.43,464.78,434.39z M464.78,325.45v54.47c0,5.02-4.05,9.08-9.08,9.08
		s-9.08-4.05-9.08-9.08v-54.47c0-5.02,4.05-9.08,9.08-9.08S464.78,320.42,464.78,325.45z M464.78,21.18v31.9
		c0,5.02-4.05,9.08-9.08,9.08s-9.08-4.06-9.08-9.08v-31.9c0-1.7-1.39-3.03-3.03-3.03h-3.57c-4.96,0-9.02-4.06-9.02-9.08
		S435.06,0,440.03,0h3.57C455.28,0,464.78,9.5,464.78,21.18z M253.79,469.08c0,5.02-4.05,9.08-9.08,9.08h-54.48
		c-5.02,0-9.08-4.05-9.08-9.08c0-5.02,4.05-9.08,9.08-9.08h54.48C249.74,460,253.79,464.05,253.79,469.08z M362.74,469.08
		c0,5.02-4.05,9.08-9.08,9.08h-54.47c-5.02,0-9.08-4.05-9.08-9.08c0-5.02,4.06-9.08,9.08-9.08h54.47
		C358.68,460,362.74,464.05,362.74,469.08z"/>
</g>
</svg>
