<?xml version="1.0" encoding="utf-8"?>
<!-- Generator: Adobe Illustrator 23.0.1, SVG Export Plug-In . SVG Version: 6.00 Build 0)  -->
<svg version="1.1" id="Capa_1" xmlns="http://www.w3.org/2000/svg" xmlns:xlink="http://www.w3.org/1999/xlink" x="0px" y="0px"
	 viewBox="0 0 508.96 508.96" style="enable-background:new 0 0 508.96 508.96;" xml:space="preserve">
<style type="text/css">
	.st0{fill:#FEFFFD;}
</style>
<g>
	<g>
		<g>
			<path class="st0" d="M248.78,293.56l29.59-29.66l-30.24-30.16l-29.55,29.57c-12.36-8.41-26.51-14.24-41.72-17.17v-41.91h-42.71
				v41.93c-15.16,2.96-29.29,8.76-41.68,17.17l-29.64-29.57l-30.16,30.16l29.51,29.66c-8.31,12.3-14.17,26.42-17.13,41.72H3.15
				v42.69h41.91c2.95,15.16,8.82,29.29,17.13,41.72l-29.51,29.57l30.16,30.16l29.62-29.57c12.36,8.37,26.51,14.24,41.7,17.19v41.91
				h42.69v-41.95c15.21-2.95,29.32-8.8,41.72-17.19l29.55,29.53l30.24-30.13l-29.6-29.57c8.41-12.38,14.21-26.51,17.13-41.74h42
				v-42.64H265.9C262.99,319.98,257.19,305.92,248.78,293.56z M155.53,403.18c-25.67,0-46.59-20.86-46.59-46.59
				s20.92-46.57,46.59-46.57c25.71,0,46.53,20.84,46.53,46.57C202.05,382.32,181.26,403.18,155.53,403.18z"/>
			<path class="st0" d="M495.63,334.17l0.3-0.22L288.21,125.13l-0.32-98.25L187.37,0l-10.7,10.72l53.45,53.32l-52.07,52.18
				l-53.41-53.37l-10.74,10.66l26.96,100.41l95.6,0.32l-0.63,0.52l209.09,210.18l0.28-0.26c13.93,13.63,36.41,13.63,50.13-0.24
				C509.24,370.63,509.27,348.26,495.63,334.17z M482.13,371.19c-6.21,6.19-16.24,6.21-22.41,0c-6.15-6.19-6.21-16.16-0.07-22.37
				c6.23-6.17,16.26-6.17,22.48-0.02C488.28,354.95,488.34,364.96,482.13,371.19z"/>
		</g>
	</g>
</g>
</svg>
