<?xml version="1.0" encoding="utf-8"?>
<!-- Generator: Adobe Illustrator 23.0.1, SVG Export Plug-In . SVG Version: 6.00 Build 0)  -->
<svg version="1.1" id="Layer_1" xmlns="http://www.w3.org/2000/svg" xmlns:xlink="http://www.w3.org/1999/xlink" x="0px" y="0px"
	 viewBox="0 0 612 792" style="enable-background:new 0 0 612 792;" xml:space="preserve">
<style type="text/css">
	.st0{fill:none;stroke:#FFFFFF;stroke-width:40;stroke-miterlimit:10;}
	.st1{fill:#DCE0DF;}
</style>
<path class="st0" d="M75,124c-71.43,61.71,64.55,214.09,35,264c-36.82,62.21-75.84,227.82-20,284
	c19.81,19.93,104.86-39.58,177.58-35.36c90.88,5.27,246.78,14.67,290.3-107.88c24.35-68.56-12.19-146.14-34.71-193.96
	c-44.91-95.37-140.67-200.95-213.57-176.61C266.85,172.46,142.01,66.11,75,124z"/>
<rect x="267.58" y="97.37" class="st1" width="116.42" height="116.42"/>
<rect x="8.58" y="48.39" class="st1" width="116.42" height="116.42"/>
<rect x="40.58" y="316.58" class="st1" width="116.42" height="116.42"/>
<rect x="30.58" y="612.37" class="st1" width="116.42" height="116.42"/>
<rect x="507.72" y="433" class="st1" width="116.42" height="116.42"/>
</svg>
