<?xml version="1.0" encoding="utf-8"?>
<!-- Generator: Adobe Illustrator 23.0.1, SVG Export Plug-In . SVG Version: 6.00 Build 0)  -->
<svg version="1.1" id="Layer_1" xmlns="http://www.w3.org/2000/svg" xmlns:xlink="http://www.w3.org/1999/xlink" x="0px" y="0px"
	 viewBox="0 0 612 792" style="enable-background:new 0 0 612 792;" xml:space="preserve">
<style type="text/css">
	.st0{fill:none;stroke:#FFFFFF;stroke-width:40;stroke-miterlimit:10;}
	.st1{fill:#DCE0DF;}
</style>
<path class="st0" d="M65,124c-71.4,61.7,64.6,214.1,35,264c-36.8,62.2-75.8,227.8-20,284c19.8,19.9,104.9-39.6,177.6-35.4
	c90.9,5.3,246.8,14.7,290.3-107.9c24.3-68.6-12.2-146.1-34.7-194c-44.9-95.4-140.7-200.9-213.6-176.6C256.9,172.5,132,66.1,65,124z"
	/>
<rect x="257.6" y="97.4" class="st1" width="116.4" height="116.4"/>
<rect x="-1.4" y="48.4" class="st1" width="116.4" height="116.4"/>
<rect x="30.6" y="316.6" class="st1" width="116.4" height="116.4"/>
<rect x="20.6" y="612.4" class="st1" width="116.4" height="116.4"/>
<rect x="497.7" y="433" class="st1" width="116.4" height="116.4"/>
</svg>
