<svg width="48" height="48" viewBox="0 0 48 48" fill="none" xmlns="http://www.w3.org/2000/svg">
  <!-- Dendrites -->
  <path d="M24 24 L10 14" stroke="#4a7c9e" stroke-width="1.5" stroke-linecap="round"/>
  <path d="M10 14 L6 8" stroke="#4a7c9e" stroke-width="1.2" stroke-linecap="round" opacity="0.7"/>
  <path d="M10 14 L5 16" stroke="#4a7c9e" stroke-width="1.2" stroke-linecap="round" opacity="0.7"/>
  <path d="M10 14 L12 7" stroke="#4a7c9e" stroke-width="1.2" stroke-linecap="round" opacity="0.7"/>
  <path d="M24 24 L14 32" stroke="#4a7c9e" stroke-width="1.5" stroke-linecap="round"/>
  <path d="M14 32 L8 36" stroke="#4a7c9e" stroke-width="1.2" stroke-linecap="round" opacity="0.7"/>
  <path d="M14 32 L11 40" stroke="#4a7c9e" stroke-width="1.2" stroke-linecap="round" opacity="0.7"/>
  <path d="M24 24 L18 12" stroke="#4a7c9e" stroke-width="1.5" stroke-linecap="round"/>
  <path d="M18 12 L14 6" stroke="#4a7c9e" stroke-width="1.2" stroke-linecap="round" opacity="0.7"/>
  <path d="M18 12 L22 6" stroke="#4a7c9e" stroke-width="1.2" stroke-linecap="round" opacity="0.7"/>
  <!-- Axon -->
  <path d="M24 24 L38 28" stroke="#2d5f7a" stroke-width="2" stroke-linecap="round"/>
  <path d="M38 28 L44 26" stroke="#2d5f7a" stroke-width="1.5" stroke-linecap="round"/>
  <path d="M38 28 L42 32" stroke="#2d5f7a" stroke-width="1.5" stroke-linecap="round"/>
  <!-- Manual trace overlay -->
  <path d="M6 8 L10 14 L24 24 L38 28 L44 26" stroke="#e07b3a" stroke-width="1.5" stroke-linecap="round" stroke-linejoin="round" stroke-dasharray="3 2" opacity="0.85"/>
  <!-- Soma -->
  <circle cx="24" cy="24" r="4.5" fill="#4a7c9e" opacity="0.15"/>
  <circle cx="24" cy="24" r="4.5" stroke="#2d5f7a" stroke-width="1.5" fill="none"/>
  <circle cx="24" cy="24" r="2" fill="#2d5f7a"/>
  <!-- Trace waypoints -->
  <circle cx="6" cy="8" r="1.5" fill="#e07b3a"/>
  <circle cx="10" cy="14" r="1.5" fill="#e07b3a"/>
  <circle cx="38" cy="28" r="1.5" fill="#e07b3a"/>
  <circle cx="44" cy="26" r="1.5" fill="#e07b3a"/>
</svg>
