<?xml version="1.0" encoding="utf-8"?>
<!-- Generator: Adobe Illustrator 23.0.1, SVG Export Plug-In . SVG Version: 6.00 Build 0)  -->
<svg version="1.1" id="Layer_1" xmlns="http://www.w3.org/2000/svg" xmlns:xlink="http://www.w3.org/1999/xlink" x="0px" y="0px"
	 viewBox="0 0 512.05 512.05" style="enable-background:new 0 0 512.05 512.05;" xml:space="preserve">
<style type="text/css">
	.st0{fill:#FFFFFF;}
</style>
<g>
	<g>
		<path class="st0" d="M496.2,343.5c-34.6-116.78-139.8-198.44-261.52-204.16V53.79c0-8.62-5.18-16.4-13.16-19.71
			c-7.98-3.33-17.15-1.47-23.25,4.63l-192,192c-8.34,8.34-8.34,21.82,0,30.16l192,192c6.1,6.1,15.27,7.96,23.25,4.63
			c7.98-3.29,13.16-11.09,13.16-19.71V328.01c41.43-4.2,153.2,0.04,237.67,142.04c3.76,6.34,10.45,9.56,17.54,9.56
			c2.15,0,4.31-0.3,6.46-0.88c9.24-2.54,15.68-11.95,15.68-21.55C512.47,418.64,507.14,380.39,496.2,343.5z"/>
	</g>
</g>
</svg>
