<?xml version="1.0" encoding="utf-8"?>
<!-- Generator: Adobe Illustrator 23.0.1, SVG Export Plug-In . SVG Version: 6.00 Build 0)  -->
<svg version="1.1" id="Capa_1" xmlns="http://www.w3.org/2000/svg" xmlns:xlink="http://www.w3.org/1999/xlink" x="0px" y="0px"
	 viewBox="0 0 29.29 29.29" style="enable-background:new 0 0 29.29 29.29;" xml:space="preserve">
<style type="text/css">
	.st0{fill:#FFFFFF;}
</style>
<g>
	<path class="st0" d="M1.67,13.74h12.07V8.39c0-2.27,0.81-4.36,2.14-5.89C17.21,0.98,19.11,0,21.21,0c2.1,0,4,0.98,5.33,2.51
		c1.33,1.53,2.14,3.61,2.14,5.89v7.09h-3.9V8.39c0-1.22-0.43-2.28-1.09-3.04c-0.67-0.76-1.53-1.19-2.48-1.19
		c-0.95,0-1.81,0.43-2.48,1.19c-0.67,0.76-1.09,1.82-1.09,3.04v5.35h1.67c0.58,0,1.06,0.51,1.06,1.14v13.28
		c0,0.63-0.48,1.13-1.06,1.13H1.67c-0.59,0-1.06-0.5-1.06-1.13V14.88C0.61,14.25,1.08,13.74,1.67,13.74z"/>
</g>
</svg>
