<?xml version="1.0" encoding="utf-8"?>
<!-- Generator: Adobe Illustrator 23.0.1, SVG Export Plug-In . SVG Version: 6.00 Build 0)  -->
<svg version="1.1" id="Capa_1" xmlns="http://www.w3.org/2000/svg" xmlns:xlink="http://www.w3.org/1999/xlink" x="0px" y="0px"
	 viewBox="0 0 512 512" style="enable-background:new 0 0 512 512;" xml:space="preserve">
<style type="text/css">
	.st0{fill:#FFFFFF;}
</style>
<g>
	<path class="st0" d="M497.94,430.06l-112-112c-0.37-0.37-0.8-0.61-1.18-0.96C404.44,285.33,416,248.04,416,208
		C416,93.31,322.7,0,208,0S0,93.31,0,208s93.31,208,208,208c40.04,0,77.33-11.56,109.1-31.24c0.35,0.38,0.6,0.81,0.96,1.18l112,112
		C439.43,507.31,451.72,512,464,512s24.57-4.69,33.94-14.06C516.69,479.2,516.69,448.8,497.94,430.06z M64,208
		c0-79.41,64.6-144,144-144s144,64.59,144,144s-64.6,144-144,144S64,287.41,64,208z"/>
	<path class="st0" d="M272,176H144c-17.67,0-32,14.33-32,32s14.33,32,32,32h128c17.67,0,32-14.33,32-32S289.67,176,272,176z"/>
</g>
</svg>
